<?xml version="1.0" encoding="UTF-8" standalone="no"?>
<svg
   xmlns:dc="http://purl.org/dc/elements/1.1/"
   xmlns:cc="http://creativecommons.org/ns#"
   xmlns:rdf="http://www.w3.org/1999/02/22-rdf-syntax-ns#"
   xmlns:svg="http://www.w3.org/2000/svg"
   xmlns="http://www.w3.org/2000/svg"
   xmlns:sodipodi="http://sodipodi.sourceforge.net/DTD/sodipodi-0.dtd"
   xmlns:inkscape="http://www.inkscape.org/namespaces/inkscape"
   width="130.56151mm"
   height="130.34671mm"
   viewBox="0 0 130.56151 130.34671"
   version="1.1"
   id="svg8"
   inkscape:version="1.0.2 (e86c870879, 2021-01-15, custom)"
   sodipodi:docname="apolo.svg">
  <defs
     id="defs2">
    <marker
       style="overflow:visible"
       id="Arrow1Lstart"
       refX="0"
       refY="0"
       orient="auto"
       inkscape:stockid="Arrow1Lstart"
       inkscape:isstock="true">
      <path
         transform="matrix(0.8,0,0,0.8,10,0)"
         style="fill:#efd86a;fill-opacity:1;fill-rule:evenodd;stroke:#efd86a;stroke-width:1pt;stroke-opacity:1"
         d="M 0,0 5,-5 -12.5,0 5,5 Z"
         id="path874" />
    </marker>
    <inkscape:path-effect
       effect="powerclip"
       id="path-effect1033"
       is_visible="true"
       lpeversion="1"
       inverse="true"
       flatten="false"
       hide_clip="false"
       message="fill:none;stroke:#efd86a;stroke-width:2.965;stroke-linecap:butt;stroke-linejoin:miter;stroke-miterlimit:4;stroke-dasharray:none;stroke-opacity:1" />
    <filter
       inkscape:collect="always"
       style="color-interpolation-filters:sRGB"
       id="filter866"
       x="-4.3164524e-05"
       width="1.0000863"
       y="-4.3235534e-05"
       height="1.0000865">
      <feGaussianBlur
         inkscape:collect="always"
         stdDeviation="0.0023480792"
         id="feGaussianBlur868" />
    </filter>
    <clipPath
       clipPathUnits="userSpaceOnUse"
       id="clipPath1029">
      <rect
         id="rect1031"
         width="127.31245"
         height="127.08723"
         x="38.722652"
         y="-157.44151"
         style="display:none;fill:#efd86a;stroke:none;stroke-width:1.887;stroke-miterlimit:4;stroke-dasharray:none;stroke-opacity:1;paint-order:stroke markers fill"
         rx="12.070205"
         ry="12.070205"
         d="M 50.792857,-157.44151 H 153.96489 c 6.6869,0 12.07021,5.38331 12.07021,12.0702 v 102.946819 c 0,6.686893 -5.38331,12.070205 -12.07021,12.070205 H 50.792857 c -6.686893,0 -12.070205,-5.383312 -12.070205,-12.070205 V -145.37131 c 0,-6.68689 5.383312,-12.0702 12.070205,-12.0702 z" />
      <path
         id="lpe_path-effect1033"
         style="fill:#efd86a;stroke:none;stroke-width:1.887;stroke-miterlimit:4;stroke-dasharray:none;stroke-opacity:1;paint-order:stroke markers fill"
         class="powerclip"
         d="M 35.907928,-164.63762 H 173.22038 V -27.550392 H 35.907928 Z m 14.884929,7.19611 c -6.686893,0 -12.070205,5.38331 -12.070205,12.0702 v 102.946819 c 0,6.686893 5.383312,12.070205 12.070205,12.070205 H 153.96489 c 6.6869,0 12.07021,-5.383312 12.07021,-12.070205 V -145.37131 c 0,-6.68689 -5.38331,-12.0702 -12.07021,-12.0702 z" />
    </clipPath>
    <filter
       inkscape:collect="always"
       style="color-interpolation-filters:sRGB"
       id="filter885"
       x="-1.9178797e-05"
       width="1.0000384"
       y="-1.9221248e-05"
       height="1.0000384">
      <feGaussianBlur
         inkscape:collect="always"
         stdDeviation="0.00077795182"
         id="feGaussianBlur887" />
    </filter>
  </defs>
  <sodipodi:namedview
     id="base"
     pagecolor="#318579"
     bordercolor="#666666"
     borderopacity="1.0"
     inkscape:pageopacity="0"
     inkscape:pageshadow="2"
     inkscape:zoom="0.45254835"
     inkscape:cx="-175.77846"
     inkscape:cy="461.56029"
     inkscape:document-units="mm"
     inkscape:current-layer="layer3"
     inkscape:document-rotation="0"
     showgrid="false"
     inkscape:window-width="1920"
     inkscape:window-height="1017"
     inkscape:window-x="1912"
     inkscape:window-y="-8"
     inkscape:window-maximized="1"
     borderlayer="false"
     showborder="false"
     viewbox-width="416.8"
     fit-margin-top="0"
     fit-margin-left="0"
     fit-margin-right="0"
     fit-margin-bottom="0" />
  <metadata
     id="metadata5">
    <rdf:RDF>
      <cc:Work
         rdf:about="">
        <dc:format>image/svg+xml</dc:format>
        <dc:type
           rdf:resource="http://purl.org/dc/dcmitype/StillImage" />
        <dc:title></dc:title>
      </cc:Work>
    </rdf:RDF>
  </metadata>
  <g
     inkscape:groupmode="layer"
     id="layer2"
     inkscape:label="Background"
     style="display:inline;opacity:1;filter:url(#filter866)"
     transform="translate(-40.304706,-14.474241)">
    <path
       id="rect25-6"
       width="127.31245"
       height="127.08723"
       x="40.907928"
       y="-159.63762"
       style="display:inline;fill:#ff9061;stroke:none;stroke-width:0.286651;stroke-miterlimit:4;stroke-dasharray:none"
       rx="12.070205"
       ry="12.070205"
       transform="matrix(1,0,0,-1,2.6458334,-14.81667)"
       clip-path="url(#clipPath1029)"
       inkscape:path-effect="#path-effect1033"
       d="M 52.978133,-159.63762 H 156.15017 c 6.68689,0 12.07021,5.38331 12.07021,12.07021 v 102.946813 c 0,6.686894 -5.38332,12.070205 -12.07021,12.070205 H 52.978133 c -6.686893,0 -12.070205,-5.383311 -12.070205,-12.070205 V -147.56741 c 0,-6.6869 5.383312,-12.07021 12.070205,-12.07021 z"
       sodipodi:type="rect" />
    <rect
       id="rect25"
       width="127.31245"
       height="127.08723"
       x="40.310154"
       y="-141.56674"
       style="fill:#66cfcb;stroke:none;stroke-width:1.887;stroke-miterlimit:4;stroke-dasharray:none;stroke-opacity:1;paint-order:stroke markers fill"
       rx="12.070205"
       ry="12.070205"
       transform="scale(1,-1)" />
    <path
       id="rect25-1"
       style="display:inline;fill:#66cfcb;stroke:none;stroke-width:7.13197;stroke-miterlimit:4;stroke-dasharray:none;stroke-opacity:1;paint-order:stroke markers fill;filter:url(#filter866)"
       d="m 197.97266,54.726562 c -25.2733,0 -45.61914,20.345843 -45.61914,45.619138 v 389.08985 c 0,25.27329 20.34584,45.61914 45.61914,45.61914 h 389.9414 c 25.2733,0 45.6211,-20.34585 45.6211,-45.61914 V 100.3457 c 0,-25.273295 -20.3478,-45.619138 -45.6211,-45.619138 z"
       transform="scale(0.26458333)" />
  </g>
  <g
     inkscape:groupmode="layer"
     id="g72"
     inkscape:label="OrangeBulb"
     style="display:inline;opacity:1;filter:url(#filter885)"
     transform="translate(-40.304706,-14.474241)">
    <rect
       style="fill:#ff9061;stroke:none;stroke-width:2.58351;stroke-miterlimit:4;stroke-dasharray:none;stroke-opacity:1;paint-order:stroke markers fill"
       id="rect44"
       width="3.3582973"
       height="13.136675"
       x="106.31254"
       y="26.308651"
       rx="1.6791487"
       ry="1.8950402" />
    <rect
       style="fill:#ff9061;stroke:none;stroke-width:2.58351;stroke-miterlimit:4;stroke-dasharray:none;stroke-opacity:1;paint-order:stroke markers fill"
       id="rect46"
       width="3.3582973"
       height="13.136675"
       x="21.568111"
       y="80.816345"
       rx="1.6791487"
       ry="1.8950402"
       transform="rotate(-45)" />
    <rect
       style="fill:#ff9061;stroke:none;stroke-width:2.58351;stroke-miterlimit:4;stroke-dasharray:none;stroke-opacity:1;paint-order:stroke markers fill"
       id="rect48"
       width="3.3582973"
       height="13.136675"
       x="-76.741234"
       y="59.315933"
       rx="1.6791487"
       ry="1.8950402"
       transform="rotate(-90)" />
    <rect
       style="fill:#ff9061;stroke:none;stroke-width:2.58351;stroke-miterlimit:4;stroke-dasharray:none;stroke-opacity:1;paint-order:stroke markers fill"
       id="rect50"
       width="3.3582973"
       height="13.136675"
       x="-130.9818"
       y="-25.394171"
       rx="1.6791487"
       ry="1.8950402"
       transform="rotate(-135)" />
    <rect
       style="fill:#ff9061;stroke:none;stroke-width:2.58351;stroke-miterlimit:4;stroke-dasharray:none;stroke-opacity:1;paint-order:stroke markers fill"
       id="rect52"
       width="3.3582973"
       height="13.136675"
       x="-131.1552"
       y="-71.906944"
       rx="1.6791487"
       ry="1.8950402"
       transform="matrix(-0.70710678,-0.70710678,-0.70710678,0.70710678,0,0)" />
    <rect
       style="fill:#ff9061;stroke:none;stroke-width:2.58351;stroke-miterlimit:4;stroke-dasharray:none;stroke-opacity:1;paint-order:stroke markers fill"
       id="rect54"
       width="3.3582973"
       height="13.136675"
       x="-76.741234"
       y="-156.6674"
       rx="1.6791487"
       ry="1.8950402"
       transform="matrix(0,-1,-1,0,0,0)" />
    <rect
       style="fill:#ff9061;stroke:none;stroke-width:2.58351;stroke-miterlimit:4;stroke-dasharray:none;stroke-opacity:1;paint-order:stroke markers fill"
       id="rect56"
       width="3.3582973"
       height="13.136675"
       x="21.741518"
       y="-178.11746"
       rx="1.6791487"
       ry="1.8950402"
       transform="matrix(0.70710678,-0.70710678,-0.70710678,-0.70710678,0,0)" />
    <path
       style="color:#000000;font-style:normal;font-variant:normal;font-weight:normal;font-stretch:normal;font-size:medium;line-height:normal;font-family:sans-serif;font-variant-ligatures:normal;font-variant-position:normal;font-variant-caps:normal;font-variant-numeric:normal;font-variant-alternates:normal;font-variant-east-asian:normal;font-feature-settings:normal;font-variation-settings:normal;text-indent:0;text-align:start;text-decoration:none;text-decoration-line:none;text-decoration-style:solid;text-decoration-color:#000000;letter-spacing:normal;word-spacing:normal;text-transform:none;writing-mode:lr-tb;direction:ltr;text-orientation:mixed;dominant-baseline:auto;baseline-shift:baseline;text-anchor:start;white-space:normal;shape-padding:0;shape-margin:0;inline-size:0;clip-rule:nonzero;display:inline;overflow:visible;visibility:visible;opacity:1;isolation:auto;mix-blend-mode:normal;color-interpolation:sRGB;color-interpolation-filters:linearRGB;solid-color:#000000;solid-opacity:1;vector-effect:none;fill:#ff9061;fill-opacity:1;fill-rule:nonzero;stroke:none;stroke-linecap:butt;stroke-linejoin:miter;stroke-miterlimit:4;stroke-dasharray:none;stroke-dashoffset:0;stroke-opacity:1;color-rendering:auto;image-rendering:auto;shape-rendering:auto;text-rendering:auto;enable-background:accumulate;stop-color:#000000;stop-opacity:1"
       d="m 99.423828,117.30469 -2.701172,1.22265 c 2.104204,4.6514 7.155664,6.54205 11.822264,6.39258 4.6666,-0.14947 9.37991,-2.24036 10.88672,-6.40625 l -2.78906,-1.00781 c -0.90279,2.49593 -4.3763,4.32702 -8.19141,4.44922 -3.81511,0.1222 -7.54077,-1.36429 -9.027342,-4.65039 z"
       id="path58" />
    <path
       style="color:#000000;font-style:normal;font-variant:normal;font-weight:normal;font-stretch:normal;font-size:medium;line-height:normal;font-family:sans-serif;font-variant-ligatures:normal;font-variant-position:normal;font-variant-caps:normal;font-variant-numeric:normal;font-variant-alternates:normal;font-variant-east-asian:normal;font-feature-settings:normal;font-variation-settings:normal;text-indent:0;text-align:start;text-decoration:none;text-decoration-line:none;text-decoration-style:solid;text-decoration-color:#000000;letter-spacing:normal;word-spacing:normal;text-transform:none;writing-mode:lr-tb;direction:ltr;text-orientation:mixed;dominant-baseline:auto;baseline-shift:baseline;text-anchor:start;white-space:normal;shape-padding:0;shape-margin:0;inline-size:0;clip-rule:nonzero;display:inline;overflow:visible;visibility:visible;opacity:1;isolation:auto;mix-blend-mode:normal;color-interpolation:sRGB;color-interpolation-filters:linearRGB;solid-color:#000000;solid-opacity:1;vector-effect:none;fill:#ff9061;fill-opacity:1;fill-rule:nonzero;stroke:none;stroke-linecap:butt;stroke-linejoin:miter;stroke-miterlimit:4;stroke-dasharray:none;stroke-dashoffset:0;stroke-opacity:1;color-rendering:auto;image-rendering:auto;shape-rendering:auto;text-rendering:auto;enable-background:accumulate;stop-color:#000000;stop-opacity:1"
       d="M 107.91797,48.457031 C 87.71755,48.53108 76.254805,70.668478 86.162109,86.652344 l -0.06055,-0.107422 c 2.49389,4.88385 5.502419,9.635681 7.259766,14.521488 l 0.02344,0.0644 0.0293,0.0606 c 0,0 0.404024,0.86811 0.800782,1.89062 0.396758,1.02251 0.708072,2.3917 0.707031,2.42188 l 2.962891,0.10156 c 0.04621,-1.33998 -0.467711,-2.46551 -0.90625,-3.5957 -0.43854,-1.13019 -0.878907,-2.074223 -0.878907,-2.074223 l 0.05078,0.126953 C 94.239097,94.748691 91.146698,89.906082 88.742188,85.197266 l -0.02734,-0.05469 -0.0332,-0.05273 C 79.956741,71.0136 89.874135,51.49243 107.92188,51.421875 c 18.049,0.06909 27.96742,19.591196 19.24218,33.667969 l -0.0332,0.05273 -0.0273,0.05469 c -2.40451,4.708816 -5.49691,9.551425 -7.40821,14.865236 l 0.0508,-0.126955 c 0,0 -0.44036,0.944035 -0.8789,2.074225 -0.43854,1.13019 -0.95246,2.25572 -0.90625,3.5957 l 2.96289,-0.10156 c -0.001,-0.0302 0.31027,-1.39937 0.70703,-2.42188 0.39676,-1.02251 0.80078,-1.89062 0.80078,-1.89062 l 0.0293,-0.0606 0.0234,-0.0644 c 1.75734,-4.885809 4.76587,-9.63764 7.25976,-14.52149 l -0.0605,0.107422 C 139.5909,70.668478 128.12813,48.53108 107.92773,48.457031 l -0.006,1.482422 z"
       id="path60" />
    <path
       style="color:#000000;font-style:normal;font-variant:normal;font-weight:normal;font-stretch:normal;font-size:medium;line-height:normal;font-family:sans-serif;font-variant-ligatures:normal;font-variant-position:normal;font-variant-caps:normal;font-variant-numeric:normal;font-variant-alternates:normal;font-variant-east-asian:normal;font-feature-settings:normal;font-variation-settings:normal;text-indent:0;text-align:start;text-decoration:none;text-decoration-line:none;text-decoration-style:solid;text-decoration-color:#000000;letter-spacing:normal;word-spacing:normal;text-transform:none;writing-mode:lr-tb;direction:ltr;text-orientation:mixed;dominant-baseline:auto;baseline-shift:baseline;text-anchor:start;white-space:normal;shape-padding:0;shape-margin:0;inline-size:0;clip-rule:nonzero;display:inline;overflow:visible;visibility:visible;opacity:1;isolation:auto;mix-blend-mode:normal;color-interpolation:sRGB;color-interpolation-filters:linearRGB;solid-color:#000000;solid-opacity:1;vector-effect:none;fill:#ff9061;fill-opacity:1;fill-rule:nonzero;stroke:none;stroke-linecap:butt;stroke-linejoin:miter;stroke-miterlimit:4;stroke-dasharray:none;stroke-dashoffset:0;stroke-opacity:1;color-rendering:auto;image-rendering:auto;shape-rendering:auto;text-rendering:auto;enable-background:accumulate;stop-color:#000000;stop-opacity:1"
       d="m 101.61133,82.966797 c -1.49946,-0.190305 -2.909144,0.612893 -3.576174,1.744141 -0.66703,1.131247 -0.769204,2.527481 -0.30664,3.841796 l 0.05078,0.140625 0.07617,0.126953 c 1.198761,2.006303 2.833294,2.841097 4.445314,3.431641 -0.13878,3.371701 -0.89612,6.899496 -2.386721,10.347657 l 2.720711,1.17578 c 1.48495,-3.43509 2.54936,-7.060067 2.8125,-10.654296 1.90333,0.158175 3.73335,0.161134 5.48632,-0.002 0.26287,3.594946 1.32921,7.220456 2.81446,10.656246 l 2.72265,-1.17578 c -1.49059,-3.448158 -2.24793,-6.975953 -2.38672,-10.347654 1.61203,-0.590544 3.24656,-1.425337 4.44532,-3.431641 l 0.0762,-0.126953 0.0488,-0.140625 c 0.46256,-1.314314 0.36234,-2.710549 -0.30469,-3.841796 -0.66703,-1.131248 -2.07867,-1.934447 -3.57813,-1.744141 l -0.13086,0.01758 -0.1289,0.04102 c -1.55914,0.492534 -2.52402,1.782545 -2.96484,3.015625 -0.43936,1.228979 -0.52023,2.476041 -0.5918,3.511718 -0.0181,0.205559 0.008,0.414889 -0.004,0.621094 -1.71388,0.180571 -3.55783,0.173912 -5.51758,-0.0039 -0.0119,-0.204905 0.0141,-0.412922 -0.004,-0.617188 -0.0716,-1.035677 -0.15244,-2.282739 -0.5918,-3.511718 -0.44082,-1.23308 -1.40766,-2.523091 -2.9668,-3.015625 l -0.12695,-0.04102 z m -0.51953,3.011719 c 0.46213,0.191289 0.72944,0.434869 0.95312,1.060546 0.19182,0.53656 0.25867,1.328888 0.33008,2.091797 -0.69958,-0.362834 -1.3078,-0.875075 -1.84375,-1.708984 -0.11692,-0.475198 -0.0896,-0.957097 0.0566,-1.205078 0.12698,-0.215342 0.28449,-0.229572 0.50391,-0.238281 z m 14.20117,0 c 0.21903,0.0088 0.37507,0.02309 0.50195,0.238281 0.14622,0.247981 0.17357,0.729879 0.0566,1.205078 -0.53536,0.832993 -1.1432,1.344279 -1.84179,1.707031 0.0714,-0.762117 0.13648,-1.553791 0.32812,-2.089844 0.2237,-0.625739 0.49285,-0.869261 0.95508,-1.060546 z"
       id="path62" />
    <g
       id="g70"
       transform="translate(5.1971726,-16.186834)"
       style="fill:#fad75c">
      <rect
         style="fill:#fad75c;stroke:none;stroke-width:3.13186;stroke-miterlimit:4;stroke-dasharray:none;stroke-opacity:1;paint-order:stroke markers fill"
         id="rect64"
         width="30.869631"
         height="5.4421372"
         x="87.356598"
         y="124.06756"
         rx="1.7075493"
         ry="1.9051542" />
      <rect
         style="fill:#fad75c;stroke:none;stroke-width:3.13186;stroke-miterlimit:4;stroke-dasharray:none;stroke-opacity:1;paint-order:stroke markers fill"
         id="rect66"
         width="30.869631"
         height="5.4421372"
         x="87.356598"
         y="118.52807"
         rx="1.7075493"
         ry="1.9051542" />
      <rect
         style="fill:#fad75c;stroke:none;stroke-width:3.13186;stroke-miterlimit:4;stroke-dasharray:none;stroke-opacity:1;paint-order:stroke markers fill"
         id="rect68"
         width="30.869631"
         height="5.4421372"
         x="87.356598"
         y="129.62779"
         rx="1.7075493"
         ry="1.9051542" />
    </g>
  </g>
  <g
     inkscape:groupmode="layer"
     id="layer3"
     inkscape:label="YellowBulb"
     style="display:inline;opacity:1;filter:url(#filter885)"
     transform="translate(-40.304706,-14.474241)">
    <path
       style="color:#000000;font-style:normal;font-variant:normal;font-weight:normal;font-stretch:normal;font-size:medium;line-height:normal;font-family:sans-serif;font-variant-ligatures:normal;font-variant-position:normal;font-variant-caps:normal;font-variant-numeric:normal;font-variant-alternates:normal;font-variant-east-asian:normal;font-feature-settings:normal;font-variation-settings:normal;text-indent:0;text-align:start;text-decoration:none;text-decoration-line:none;text-decoration-style:solid;text-decoration-color:#000000;letter-spacing:normal;word-spacing:normal;text-transform:none;writing-mode:lr-tb;direction:ltr;text-orientation:mixed;dominant-baseline:auto;baseline-shift:baseline;text-anchor:start;white-space:normal;shape-padding:0;shape-margin:0;inline-size:0;clip-rule:nonzero;display:inline;overflow:visible;visibility:visible;opacity:1;isolation:auto;mix-blend-mode:normal;color-interpolation:sRGB;color-interpolation-filters:linearRGB;solid-color:#000000;solid-opacity:1;vector-effect:none;fill:#fad75c;fill-opacity:1;fill-rule:nonzero;stroke:none;stroke-linecap:butt;stroke-linejoin:round;stroke-miterlimit:4;stroke-dasharray:none;stroke-dashoffset:0;stroke-opacity:1;paint-order:stroke markers fill;color-rendering:auto;image-rendering:auto;shape-rendering:auto;text-rendering:auto;enable-background:accumulate;stop-color:#000000;stop-opacity:1"
       d="m 96.873047,118.67383 -2.701172,1.22265 c 2.104201,4.6514 7.155665,6.54205 11.822265,6.39258 4.6666,-0.14947 9.37795,-2.23841 10.88477,-6.40429 L 114.0918,118.875 c -0.90279,2.49593 -4.37825,4.32897 -8.19336,4.45117 -3.81511,0.1222 -7.538823,-1.36624 -9.025393,-4.65234 z"
       id="path1179" />
    <rect
       style="fill:#fad75c;stroke:none;stroke-width:2.58351;stroke-miterlimit:4;stroke-dasharray:none;stroke-opacity:1;paint-order:stroke markers fill"
       id="rect1042"
       width="3.3582973"
       height="13.136675"
       x="103.76119"
       y="27.678814"
       rx="1.6791487"
       ry="1.8950402" />
    <rect
       style="fill:#fad75c;stroke:none;stroke-width:2.58351;stroke-miterlimit:4;stroke-dasharray:none;stroke-opacity:1;paint-order:stroke markers fill"
       id="rect1042-2"
       width="3.3582973"
       height="13.136675"
       x="18.795189"
       y="79.981125"
       rx="1.6791487"
       ry="1.8950402"
       transform="rotate(-45)" />
    <rect
       style="fill:#fad75c;stroke:none;stroke-width:2.58351;stroke-miterlimit:4;stroke-dasharray:none;stroke-opacity:1;paint-order:stroke markers fill"
       id="rect1042-8"
       width="3.3582973"
       height="13.136675"
       x="-78.111397"
       y="56.764591"
       rx="1.6791487"
       ry="1.8950402"
       transform="rotate(-90)" />
    <rect
       style="fill:#fad75c;stroke:none;stroke-width:2.58351;stroke-miterlimit:4;stroke-dasharray:none;stroke-opacity:1;paint-order:stroke markers fill"
       id="rect1042-8-2"
       width="3.3582973"
       height="13.136675"
       x="-130.14659"
       y="-28.167093"
       rx="1.6791487"
       ry="1.8950402"
       transform="rotate(-135)" />
    <rect
       style="fill:#fad75c;stroke:none;stroke-width:2.58351;stroke-miterlimit:4;stroke-dasharray:none;stroke-opacity:1;paint-order:stroke markers fill"
       id="rect1120"
       width="3.3582973"
       height="13.136675"
       x="-130.31999"
       y="-69.134026"
       rx="1.6791487"
       ry="1.8950402"
       transform="matrix(-0.70710678,-0.70710678,-0.70710678,0.70710678,0,0)" />
    <rect
       style="fill:#fad75c;stroke:none;stroke-width:2.58351;stroke-miterlimit:4;stroke-dasharray:none;stroke-opacity:1;paint-order:stroke markers fill"
       id="rect1122"
       width="3.3582973"
       height="13.136675"
       x="-78.111397"
       y="-154.11607"
       rx="1.6791487"
       ry="1.8950402"
       transform="matrix(0,-1,-1,0,0,0)" />
    <rect
       style="fill:#fad75c;stroke:none;stroke-width:2.58351;stroke-miterlimit:4;stroke-dasharray:none;stroke-opacity:1;paint-order:stroke markers fill"
       id="rect1124"
       width="3.3582973"
       height="13.136675"
       x="18.968596"
       y="-177.28226"
       rx="1.6791487"
       ry="1.8950402"
       transform="matrix(0.70710678,-0.70710678,-0.70710678,-0.70710678,0,0)" />
    <path
       style="color:#000000;font-style:normal;font-variant:normal;font-weight:normal;font-stretch:normal;font-size:medium;line-height:normal;font-family:sans-serif;font-variant-ligatures:normal;font-variant-position:normal;font-variant-caps:normal;font-variant-numeric:normal;font-variant-alternates:normal;font-variant-east-asian:normal;font-feature-settings:normal;font-variation-settings:normal;text-indent:0;text-align:start;text-decoration:none;text-decoration-line:none;text-decoration-style:solid;text-decoration-color:#000000;letter-spacing:normal;word-spacing:normal;text-transform:none;writing-mode:lr-tb;direction:ltr;text-orientation:mixed;dominant-baseline:auto;baseline-shift:baseline;text-anchor:start;white-space:normal;shape-padding:0;shape-margin:0;inline-size:0;clip-rule:nonzero;display:inline;overflow:visible;visibility:visible;opacity:1;isolation:auto;mix-blend-mode:normal;color-interpolation:sRGB;color-interpolation-filters:linearRGB;solid-color:#000000;solid-opacity:1;vector-effect:none;fill:#fad75c;fill-opacity:1;fill-rule:nonzero;stroke:none;stroke-linecap:butt;stroke-linejoin:miter;stroke-miterlimit:4;stroke-dasharray:none;stroke-dashoffset:0;stroke-opacity:1;color-rendering:auto;image-rendering:auto;shape-rendering:auto;text-rendering:auto;enable-background:accumulate;stop-color:#000000;stop-opacity:1"
       d="M 105.36523,49.826172 C 85.164826,49.90022 73.704024,72.037618 83.611328,88.021484 l -0.06055,-0.105468 c 2.49389,4.883849 5.502419,9.633722 7.259766,14.519534 l 0.02344,0.0644 0.02734,0.0625 c 0,0 0.405977,0.86616 0.802734,1.88867 0.396758,1.02251 0.708072,2.3917 0.707032,2.42188 l 2.96289,0.10351 c 0.04621,-1.33998 -0.46771,-2.46746 -0.90625,-3.59765 -0.411788,-1.06125 -0.779043,-1.84185 -0.828125,-1.94727 -1.911293,-5.313814 -5.003692,-10.156417 -7.408203,-14.865234 l -0.0293,-0.05469 -0.03125,-0.05078 C 77.40596,72.384694 87.323365,52.86157 105.37109,52.791016 c 18.04772,0.07055 27.9671,19.593677 19.24219,33.669922 l -0.0332,0.05078 -0.0273,0.05469 c -2.40451,4.708817 -5.49886,9.55142 -7.41015,14.865232 -0.0491,0.10542 -0.41634,0.88602 -0.82813,1.94727 -0.43854,1.13019 -0.9505,2.25767 -0.90429,3.59765 l 2.96289,-0.10351 c -10e-4,-0.0302 0.31027,-1.39937 0.70703,-2.42188 0.39676,-1.02251 0.80078,-1.88867 0.80078,-1.88867 l 0.0293,-0.0625 0.0234,-0.0644 c 1.75735,-4.88581 4.76588,-9.635683 7.25977,-14.519532 l -0.0605,0.105468 C 137.04012,72.037618 125.57735,49.90022 105.37695,49.826172 l -0.006,1.482422 z"
       id="path1212" />
    <path
       style="color:#000000;font-style:normal;font-variant:normal;font-weight:normal;font-stretch:normal;font-size:medium;line-height:normal;font-family:sans-serif;font-variant-ligatures:normal;font-variant-position:normal;font-variant-caps:normal;font-variant-numeric:normal;font-variant-alternates:normal;font-variant-east-asian:normal;font-feature-settings:normal;font-variation-settings:normal;text-indent:0;text-align:start;text-decoration:none;text-decoration-line:none;text-decoration-style:solid;text-decoration-color:#000000;letter-spacing:normal;word-spacing:normal;text-transform:none;writing-mode:lr-tb;direction:ltr;text-orientation:mixed;dominant-baseline:auto;baseline-shift:baseline;text-anchor:start;white-space:normal;shape-padding:0;shape-margin:0;inline-size:0;clip-rule:nonzero;display:inline;overflow:visible;visibility:visible;opacity:1;isolation:auto;mix-blend-mode:normal;color-interpolation:sRGB;color-interpolation-filters:linearRGB;solid-color:#000000;solid-opacity:1;vector-effect:none;fill:#fad75c;fill-opacity:1;fill-rule:nonzero;stroke:none;stroke-linecap:butt;stroke-linejoin:miter;stroke-miterlimit:4;stroke-dasharray:none;stroke-dashoffset:0;stroke-opacity:1;color-rendering:auto;image-rendering:auto;shape-rendering:auto;text-rendering:auto;enable-background:accumulate;stop-color:#000000;stop-opacity:1"
       d="m 99.060547,84.337891 c -1.49946,-0.190306 -2.909143,0.612893 -3.576172,1.74414 -0.667029,1.131247 -0.769205,2.525528 -0.306641,3.839844 l 0.04883,0.140625 0.07813,0.128906 c 1.198357,2.005633 2.831832,2.839103 4.443359,3.429688 -0.138791,3.371685 -0.896129,6.899506 -2.386719,10.347656 l 2.722656,1.17773 c 1.48495,-3.43509 2.54937,-7.060065 2.8125,-10.654292 1.90389,0.158212 3.73289,0.15934 5.48633,-0.0039 0.26263,3.595572 1.32894,7.221802 2.81446,10.658202 l 2.72265,-1.17773 c -1.49059,-3.44815 -2.24793,-6.975974 -2.38672,-10.347659 1.61153,-0.590585 3.245,-1.424054 4.44336,-3.429688 l 0.0762,-0.128906 0.0508,-0.140625 c 0.46256,-1.314314 0.36038,-2.708597 -0.30664,-3.839844 -0.66703,-1.131247 -2.07672,-1.934446 -3.57618,-1.74414 l -0.13281,0.01563 -0.12695,0.04102 c -1.55914,0.492535 -2.52598,1.784499 -2.9668,3.017578 -0.43935,1.22898 -0.52023,2.476042 -0.5918,3.511719 -0.0181,0.204913 0.008,0.413585 -0.004,0.619141 -1.71388,0.180571 -3.55784,0.175864 -5.51758,-0.002 -0.0122,-0.208795 0.0146,-0.420776 -0.004,-0.628907 -0.0714,-1.033634 -0.15195,-2.275121 -0.58984,-3.5 -0.44082,-1.233078 -1.40766,-2.525042 -2.966802,-3.017578 l -0.126953,-0.04102 z m -0.519531,3.011718 c 0.462131,0.191289 0.729448,0.434869 0.953125,1.060547 0.191944,0.536917 0.256711,1.328331 0.328125,2.091797 -0.699068,-0.362792 -1.30615,-0.87555 -1.841797,-1.708984 -0.117677,-0.475945 -0.08979,-0.956739 0.05664,-1.205078 0.126975,-0.215343 0.284495,-0.229573 0.503907,-0.238282 z m 14.199214,0 c 0.21941,0.0087 0.37694,0.02294 0.50391,0.238282 0.14643,0.248339 0.17432,0.729131 0.0566,1.205078 -0.53565,0.833433 -1.14273,1.346192 -1.8418,1.708984 0.0714,-0.763466 0.13618,-1.554881 0.32813,-2.091797 0.22368,-0.625678 0.49099,-0.869257 0.95312,-1.060547 z"
       id="path39" />
    <g
       id="g1195"
       transform="translate(2.6458334,-14.81667)">
      <rect
         style="fill:#ff9061;stroke:none;stroke-width:3.13186;stroke-miterlimit:4;stroke-dasharray:none;stroke-opacity:1;paint-order:stroke markers fill"
         id="rect1126-1"
         width="30.869631"
         height="5.4421372"
         x="87.356598"
         y="124.06756"
         rx="1.7075493"
         ry="1.9051542" />
      <rect
         style="fill:#ff9061;stroke:none;stroke-width:3.13186;stroke-miterlimit:4;stroke-dasharray:none;stroke-opacity:1;paint-order:stroke markers fill"
         id="rect1126"
         width="30.869631"
         height="5.4421372"
         x="87.356598"
         y="118.52807"
         rx="1.7075493"
         ry="1.9051542" />
      <rect
         style="fill:#ff9061;stroke:none;stroke-width:3.13186;stroke-miterlimit:4;stroke-dasharray:none;stroke-opacity:1;paint-order:stroke markers fill"
         id="rect1126-8"
         width="30.869631"
         height="5.4421372"
         x="87.356598"
         y="129.62779"
         rx="1.7075493"
         ry="1.9051542" />
    </g>
    <path
       style="opacity:1;fill:none;stroke:#66cfcb;stroke-width:0.264583px;stroke-linecap:butt;stroke-linejoin:miter;stroke-opacity:1"
       d="m 92.959681,130.30433 19.439679,-0.51157"
       id="path1160" />
  </g>
</svg>
