<?xml version="1.0" encoding="UTF-8" standalone="no"?>
<svg
   xmlns:dc="http://purl.org/dc/elements/1.1/"
   xmlns:cc="http://creativecommons.org/ns#"
   xmlns:rdf="http://www.w3.org/1999/02/22-rdf-syntax-ns#"
   xmlns:svg="http://www.w3.org/2000/svg"
   xmlns="http://www.w3.org/2000/svg"
   xmlns:sodipodi="http://sodipodi.sourceforge.net/DTD/sodipodi-0.dtd"
   xmlns:inkscape="http://www.inkscape.org/namespaces/inkscape"
   width="363.61188mm"
   height="130.35268mm"
   viewBox="0 0 363.61189 130.35267"
   version="1.1"
   id="svg8"
   inkscape:version="1.0.2 (e86c870879, 2021-01-15, custom)"
   sodipodi:docname="apolo_text.svg">
  <defs
     id="defs2">
    <marker
       style="overflow:visible"
       id="Arrow1Lstart"
       refX="0"
       refY="0"
       orient="auto"
       inkscape:stockid="Arrow1Lstart"
       inkscape:isstock="true">
      <path
         transform="matrix(0.8,0,0,0.8,10,0)"
         style="fill:#efd86a;fill-opacity:1;fill-rule:evenodd;stroke:#efd86a;stroke-width:1pt;stroke-opacity:1"
         d="M 0,0 5,-5 -12.5,0 5,5 Z"
         id="path874" />
    </marker>
    <inkscape:path-effect
       effect="powerclip"
       id="path-effect1033"
       is_visible="true"
       lpeversion="1"
       inverse="true"
       flatten="false"
       hide_clip="false"
       message="fill:none;stroke:#efd86a;stroke-width:2.965;stroke-linecap:butt;stroke-linejoin:miter;stroke-miterlimit:4;stroke-dasharray:none;stroke-opacity:1" />
    <filter
       inkscape:collect="always"
       style="color-interpolation-filters:sRGB"
       id="filter866"
       x="-4.3164524e-05"
       width="1.0000863"
       y="-4.3235534e-05"
       height="1.0000865">
      <feGaussianBlur
         inkscape:collect="always"
         stdDeviation="0.0023480792"
         id="feGaussianBlur868" />
    </filter>
    <clipPath
       clipPathUnits="userSpaceOnUse"
       id="clipPath1029">
      <path
         id="lpe_path-effect1033"
         style="fill:#efd86a;stroke:none;stroke-width:1.887;stroke-miterlimit:4;stroke-dasharray:none;stroke-opacity:1;paint-order:stroke markers fill"
         class="powerclip"
         d="M 35.902433,-164.64311 H 173.22587 V -27.544888 H 35.902433 Z m 14.890424,7.2016 c -6.686893,0 -12.070205,5.38331 -12.070205,12.0702 v 102.946819 c 0,6.686893 5.383312,12.070205 12.070205,12.070205 H 153.96489 c 6.6869,0 12.07021,-5.383312 12.07021,-12.070205 V -145.37131 c 0,-6.68689 -5.38331,-12.0702 -12.07021,-12.0702 z" />
    </clipPath>
    <filter
       inkscape:collect="always"
       style="color-interpolation-filters:sRGB"
       id="filter885"
       x="-2.3007393e-05"
       width="0.99971491"
       y="-4.4584274e-05"
       height="0.99960357">
      <feGaussianBlur
         inkscape:collect="always"
         stdDeviation="0.00077795182"
         id="feGaussianBlur887" />
    </filter>
  </defs>
  <sodipodi:namedview
     id="base"
     pagecolor="#318579"
     bordercolor="#666666"
     borderopacity="1.0"
     inkscape:pageopacity="0.3372549"
     inkscape:pageshadow="2"
     inkscape:zoom="0.5"
     inkscape:cx="313.332"
     inkscape:cy="0.37726525"
     inkscape:document-units="mm"
     inkscape:current-layer="g964"
     inkscape:document-rotation="0"
     showgrid="false"
     inkscape:window-width="1920"
     inkscape:window-height="1017"
     inkscape:window-x="1912"
     inkscape:window-y="-8"
     inkscape:window-maximized="1"
     borderlayer="false"
     showborder="false"
     viewbox-width="416.8"
     fit-margin-top="0"
     fit-margin-left="0"
     fit-margin-right="0"
     fit-margin-bottom="0"
     inkscape:snap-path-mask="false"
     inkscape:snap-path-clip="false"
     objecttolerance="20"
     gridtolerance="10000"
     showguides="false"
     inkscape:guide-bbox="true">
    <sodipodi:guide
       position="3.1936687e-06,90.352206"
       orientation="-1,0"
       id="guide2681"
       inkscape:label=""
       inkscape:locked="false"
       inkscape:color="rgb(0,0,255)" />
    <sodipodi:guide
       position="127.32246,111.55852"
       orientation="-1,0"
       id="guide2683"
       inkscape:label=""
       inkscape:locked="false"
       inkscape:color="rgb(0,0,255)" />
    <sodipodi:guide
       position="63.000002,130.35221"
       orientation="-1,0"
       id="guide2685"
       inkscape:label=""
       inkscape:locked="false"
       inkscape:color="rgb(0,0,255)" />
    <sodipodi:guide
       position="46.5584,130.35221"
       orientation="0,1"
       id="guide2687"
       inkscape:label=""
       inkscape:locked="false"
       inkscape:color="rgb(0,0,255)" />
    <sodipodi:guide
       position="147.37292,3.0876251"
       orientation="0,-1"
       id="guide2697" />
    <sodipodi:guide
       position="3.1936687e-06,67.352207"
       orientation="0,1"
       id="guide2699"
       inkscape:label=""
       inkscape:locked="false"
       inkscape:color="rgb(0,0,255)" />
  </sodipodi:namedview>
  <metadata
     id="metadata5">
    <rdf:RDF>
      <cc:Work
         rdf:about="">
        <dc:format>image/svg+xml</dc:format>
        <dc:type
           rdf:resource="http://purl.org/dc/dcmitype/StillImage" />
        <dc:title></dc:title>
      </cc:Work>
    </rdf:RDF>
  </metadata>
  <g
     inkscape:groupmode="layer"
     id="layer4"
     inkscape:label="Text"
     transform="translate(-40.188025,-148.90262)"
     style="display:inline">
    <g
       aria-label="CENTRO INTEGRADO DE FORMACIÓN PROFESIONAL"
       transform="translate(-134.15202,-97.978515)"
       id="text914"
       style="font-style:normal;font-weight:normal;font-size:13.0528px;line-height:1.05;font-family:sans-serif;letter-spacing:2.24896px;white-space:pre;inline-size:229.567;display:inline;opacity:1;fill:#000000;fill-opacity:1;stroke:#efd86a;stroke-width:0.264583;filter:url(#filter885)">
      <path
         d="m 331.23555,282.83589 q -1.35749,0 -2.3495,-0.58737 -0.97896,-0.60043 -1.51413,-1.65771 -0.53516,-1.07033 -0.53516,-2.46698 0,-1.4097 0.53516,-2.46698 0.53517,-1.07033 1.51413,-1.67075 0.99201,-0.60043 2.3495,-0.60043 1.6055,0 2.62361,0.78316 1.01812,0.78317 1.29223,2.19287 h -1.54023 q -0.18274,-0.79622 -0.78317,-1.26612 -0.60043,-0.4699 -1.60549,-0.4699 -1.37055,0 -2.16677,0.9398 -0.79622,0.92675 -0.79622,2.55835 0,1.61855 0.79622,2.5453 0.79622,0.92675 2.16677,0.92675 1.00506,0 1.60549,-0.4438 0.60043,-0.44379 0.78317,-1.21391 h 1.54023 q -0.27411,1.35749 -1.29223,2.12761 -1.01811,0.77011 -2.62361,0.77011 z"
         style="font-style:normal;font-variant:normal;font-weight:500;font-stretch:normal;font-size:13.0528px;font-family:'DM Sans';-inkscape-font-specification:'DM Sans Medium';fill:#fad75c;stroke:none;stroke-width:0.264583"
         id="path1047" />
      <path
         d="m 338.9275,282.67926 v -9.13696 h 5.8085 v 1.12254 h -4.4249 v 2.84551 h 4.03332 v 1.09644 h -4.03332 v 2.94993 h 4.4249 v 1.12254 z"
         style="font-style:normal;font-variant:normal;font-weight:500;font-stretch:normal;font-size:13.0528px;font-family:'DM Sans';-inkscape-font-specification:'DM Sans Medium';fill:#fad75c;stroke:none;stroke-width:0.264583"
         id="path1049" />
      <path
         d="m 348.6296,282.67926 v -9.13696 h 1.3836 l 4.58153,6.87883 v -6.87883 h 1.3836 v 9.13696 h -1.3836 l -4.58153,-6.87883 v 6.87883 z"
         style="font-style:normal;font-variant:normal;font-weight:500;font-stretch:normal;font-size:13.0528px;font-family:'DM Sans';-inkscape-font-specification:'DM Sans Medium';fill:#fad75c;stroke:none;stroke-width:0.264583"
         id="path1051" />
      <path
         d="m 362.22145,282.67926 v -8.01442 h -2.70193 v -1.12254 h 6.7744 v 1.12254 h -2.68888 v 8.01442 z"
         style="font-style:normal;font-variant:normal;font-weight:500;font-stretch:normal;font-size:13.0528px;font-family:'DM Sans';-inkscape-font-specification:'DM Sans Medium';fill:#fad75c;stroke:none;stroke-width:0.264583"
         id="path1053" />
      <path
         d="m 369.83509,282.67926 v -9.13696 h 3.14572 q 1.08339,0 1.77518,0.36548 0.70486,0.36548 1.04423,0.99201 0.33937,0.61348 0.33937,1.37055 0,0.84843 -0.45685,1.54023 -0.44379,0.69179 -1.39665,0.99201 l 1.94487,3.87668 h -1.60549 l -1.77518,-3.68089 h -1.6316 v 3.68089 z m 1.3836,-4.72511 h 1.68381 q 0.9398,0 1.37054,-0.45685 0.4438,-0.45685 0.4438,-1.18781 0,-0.73095 -0.43075,-1.1617 -0.43074,-0.44379 -1.39665,-0.44379 h -1.67075 z"
         style="font-style:normal;font-variant:normal;font-weight:500;font-stretch:normal;font-size:13.0528px;font-family:'DM Sans';-inkscape-font-specification:'DM Sans Medium';fill:#fad75c;stroke:none;stroke-width:0.264583"
         id="path1055" />
      <path
         d="m 384.23621,282.83589 q -1.3575,0 -2.37561,-0.60042 -1.01812,-0.60043 -1.59245,-1.65771 -0.57432,-1.07033 -0.57432,-2.46698 0,-1.39665 0.57432,-2.45393 0.57433,-1.07033 1.59245,-1.67075 1.01811,-0.60043 2.37561,-0.60043 1.35749,0 2.37561,0.60043 1.01811,0.60042 1.57938,1.67075 0.57433,1.05728 0.57433,2.45393 0,1.39665 -0.57433,2.46698 -0.56127,1.05728 -1.57938,1.65771 -1.01812,0.60042 -2.37561,0.60042 z m 0,-1.24001 q 0.9398,0 1.6316,-0.41769 0.70485,-0.41769 1.09643,-1.20086 0.39159,-0.78317 0.39159,-1.86655 0,-1.08338 -0.39159,-1.86655 -0.39158,-0.78317 -1.09643,-1.20086 -0.6918,-0.41769 -1.6316,-0.41769 -0.93981,0 -1.64466,0.41769 -0.70485,0.41769 -1.09643,1.20086 -0.37853,0.78317 -0.37853,1.86655 0,1.08338 0.37853,1.86655 0.39158,0.78317 1.09643,1.20086 0.70485,0.41769 1.64466,0.41769 z"
         style="font-style:normal;font-variant:normal;font-weight:500;font-stretch:normal;font-size:13.0528px;font-family:'DM Sans';-inkscape-font-specification:'DM Sans Medium';fill:#fad75c;stroke:none;stroke-width:0.264583"
         id="path1057" />
      <path
         d="m 398.09295,282.67926 v -9.13696 h 1.38359 v 9.13696 z"
         style="font-style:normal;font-variant:normal;font-weight:500;font-stretch:normal;font-size:13.0528px;font-family:'DM Sans';-inkscape-font-specification:'DM Sans Medium';fill:#fad75c;stroke:none;stroke-width:0.264583"
         id="path1059" />
      <path
         d="m 403.57899,282.67926 v -9.13696 h 1.38359 l 4.58154,6.87883 v -6.87883 h 1.38359 v 9.13696 h -1.38359 l -4.58154,-6.87883 v 6.87883 z"
         style="font-style:normal;font-variant:normal;font-weight:500;font-stretch:normal;font-size:13.0528px;font-family:'DM Sans';-inkscape-font-specification:'DM Sans Medium';fill:#fad75c;stroke:none;stroke-width:0.264583"
         id="path1061" />
      <path
         d="m 417.17083,282.67926 v -8.01442 h -2.70193 v -1.12254 h 6.77441 v 1.12254 h -2.68888 v 8.01442 z"
         style="font-style:normal;font-variant:normal;font-weight:500;font-stretch:normal;font-size:13.0528px;font-family:'DM Sans';-inkscape-font-specification:'DM Sans Medium';fill:#fad75c;stroke:none;stroke-width:0.264583"
         id="path1063" />
      <path
         d="m 424.78448,282.67926 v -9.13696 h 5.80849 v 1.12254 h -4.4249 v 2.84551 h 4.03332 v 1.09644 h -4.03332 v 2.94993 h 4.4249 v 1.12254 z"
         style="font-style:normal;font-variant:normal;font-weight:500;font-stretch:normal;font-size:13.0528px;font-family:'DM Sans';-inkscape-font-specification:'DM Sans Medium';fill:#fad75c;stroke:none;stroke-width:0.264583"
         id="path1065" />
      <path
         d="m 438.45463,282.83589 q -1.29223,0 -2.25813,-0.58737 -0.96591,-0.58738 -1.50108,-1.64465 -0.53516,-1.05728 -0.53516,-2.46698 0,-1.39665 0.54822,-2.46698 0.54821,-1.07033 1.55328,-1.67076 1.01812,-0.61348 2.40171,-0.61348 1.56634,0 2.61056,0.75706 1.04423,0.75706 1.3575,2.08845 h -1.56634 q -0.20884,-0.73096 -0.82233,-1.14865 -0.61348,-0.41769 -1.57939,-0.41769 -1.4358,0 -2.25813,0.92675 -0.82233,0.92675 -0.82233,2.55835 0,1.6316 0.80928,2.54529 0.80927,0.9137 2.15371,0.9137 1.35749,0 2.03624,-0.77011 0.69179,-0.77012 0.80927,-2.04929 h -2.48003 v -1.07033 h 3.87668 v 4.96006 h -1.26612 l -0.11748,-1.34444 q -0.45685,0.71791 -1.14864,1.10949 -0.6918,0.39158 -1.80129,0.39158 z"
         style="font-style:normal;font-variant:normal;font-weight:500;font-stretch:normal;font-size:13.0528px;font-family:'DM Sans';-inkscape-font-specification:'DM Sans Medium';fill:#fad75c;stroke:none;stroke-width:0.264583"
         id="path1067" />
      <path
         d="m 446.72092,282.67926 v -9.13696 h 3.14573 q 1.08338,0 1.77518,0.36548 0.70485,0.36548 1.04422,0.99201 0.33938,0.61348 0.33938,1.37055 0,0.84843 -0.45685,1.54023 -0.4438,0.69179 -1.39665,0.99201 l 1.94487,3.87668 h -1.6055 l -1.77518,-3.68089 h -1.6316 v 3.68089 z m 1.3836,-4.72511 h 1.68381 q 0.9398,0 1.37055,-0.45685 0.44379,-0.45685 0.44379,-1.18781 0,-0.73095 -0.43074,-1.1617 -0.43074,-0.44379 -1.39665,-0.44379 h -1.67076 z"
         style="font-style:normal;font-variant:normal;font-weight:500;font-stretch:normal;font-size:13.0528px;font-family:'DM Sans';-inkscape-font-specification:'DM Sans Medium';fill:#fad75c;stroke:none;stroke-width:0.264583"
         id="path1069" />
      <path
         d="m 456.31861,282.67926 3.36762,-9.13696 h 1.51412 l 3.34152,9.13696 h -1.46191 l -0.78317,-2.23203 h -3.7331 l -0.78317,2.23203 z m 2.63666,-3.32846 h 2.94993 l -1.47496,-4.16385 z"
         style="font-style:normal;font-variant:normal;font-weight:500;font-stretch:normal;font-size:13.0528px;font-family:'DM Sans';-inkscape-font-specification:'DM Sans Medium';fill:#fad75c;stroke:none;stroke-width:0.264583"
         id="path1071" />
      <path
         d="m 468.06998,282.67926 v -9.13696 h 2.96299 q 1.60549,0 2.63666,0.56127 1.04423,0.56127 1.54023,1.59244 0.50906,1.01812 0.50906,2.42782 0,1.39665 -0.50906,2.42782 -0.496,1.01812 -1.54023,1.57939 -1.03117,0.54822 -2.63666,0.54822 z m 1.3836,-1.17475 h 1.52718 q 1.24001,0 1.95792,-0.40464 0.73095,-0.40464 1.04422,-1.1617 0.32632,-0.75706 0.32632,-1.81434 0,-1.05727 -0.32632,-1.82739 -0.31327,-0.77011 -1.04422,-1.17475 -0.71791,-0.41769 -1.95792,-0.41769 h -1.52718 z"
         style="font-style:normal;font-variant:normal;font-weight:500;font-stretch:normal;font-size:13.0528px;font-family:'DM Sans';-inkscape-font-specification:'DM Sans Medium';fill:#fad75c;stroke:none;stroke-width:0.264583"
         id="path1073" />
      <path
         d="m 483.7111,282.83589 q -1.35749,0 -2.37561,-0.60042 -1.01812,-0.60043 -1.59244,-1.65771 -0.57432,-1.07033 -0.57432,-2.46698 0,-1.39665 0.57432,-2.45393 0.57432,-1.07033 1.59244,-1.67075 1.01812,-0.60043 2.37561,-0.60043 1.35749,0 2.37561,0.60043 1.01812,0.60042 1.57939,1.67075 0.57432,1.05728 0.57432,2.45393 0,1.39665 -0.57432,2.46698 -0.56127,1.05728 -1.57939,1.65771 -1.01812,0.60042 -2.37561,0.60042 z m 0,-1.24001 q 0.9398,0 1.6316,-0.41769 0.70485,-0.41769 1.09644,-1.20086 0.39158,-0.78317 0.39158,-1.86655 0,-1.08338 -0.39158,-1.86655 -0.39159,-0.78317 -1.09644,-1.20086 -0.6918,-0.41769 -1.6316,-0.41769 -0.9398,0 -1.64465,0.41769 -0.70485,0.41769 -1.09644,1.20086 -0.37853,0.78317 -0.37853,1.86655 0,1.08338 0.37853,1.86655 0.39159,0.78317 1.09644,1.20086 0.70485,0.41769 1.64465,0.41769 z"
         style="font-style:normal;font-variant:normal;font-weight:500;font-stretch:normal;font-size:13.0528px;font-family:'DM Sans';-inkscape-font-specification:'DM Sans Medium';fill:#fad75c;stroke:none;stroke-width:0.264583"
         id="path1075" />
      <path
         d="m 497.56785,282.67926 v -9.13696 h 2.96298 q 1.6055,0 2.63667,0.56127 1.04422,0.56127 1.54023,1.59244 0.50906,1.01812 0.50906,2.42782 0,1.39665 -0.50906,2.42782 -0.49601,1.01812 -1.54023,1.57939 -1.03117,0.54822 -2.63667,0.54822 z m 1.38359,-1.17475 h 1.52718 q 1.24002,0 1.95792,-0.40464 0.73096,-0.40464 1.04423,-1.1617 0.32632,-0.75706 0.32632,-1.81434 0,-1.05727 -0.32632,-1.82739 -0.31327,-0.77011 -1.04423,-1.17475 -0.7179,-0.41769 -1.95792,-0.41769 h -1.52718 z"
         style="font-style:normal;font-variant:normal;font-weight:500;font-stretch:normal;font-size:13.0528px;font-family:'DM Sans';-inkscape-font-specification:'DM Sans Medium';fill:#fad75c;stroke:none;stroke-width:0.264583"
         id="path1077" />
      <path
         d="m 508.99291,282.67926 v -9.13696 h 5.8085 v 1.12254 h -4.4249 v 2.84551 h 4.03331 v 1.09644 h -4.03331 v 2.94993 h 4.4249 v 1.12254 z"
         style="font-style:normal;font-variant:normal;font-weight:500;font-stretch:normal;font-size:13.0528px;font-family:'DM Sans';-inkscape-font-specification:'DM Sans Medium';fill:#fad75c;stroke:none;stroke-width:0.264583"
         id="path1079" />
      <path
         d="m 327.16308,296.41264 v -9.13696 h 5.73018 v 1.12254 h -4.34659 v 2.88467 h 3.60258 v 1.10948 h -3.60258 v 4.02027 z"
         style="font-style:normal;font-variant:normal;font-weight:500;font-stretch:normal;font-size:13.0528px;font-family:'DM Sans';-inkscape-font-specification:'DM Sans Medium';fill:#fad75c;stroke:none;stroke-width:0.264583"
         id="path1081" />
      <path
         d="m 340.71575,296.56927 q -1.35749,0 -2.37561,-0.60043 -1.01812,-0.60043 -1.59244,-1.6577 -0.57432,-1.07033 -0.57432,-2.46698 0,-1.39665 0.57432,-2.45393 0.57432,-1.07033 1.59244,-1.67076 1.01812,-0.60043 2.37561,-0.60043 1.35749,0 2.37561,0.60043 1.01812,0.60043 1.57939,1.67076 0.57432,1.05728 0.57432,2.45393 0,1.39665 -0.57432,2.46698 -0.56127,1.05727 -1.57939,1.6577 -1.01812,0.60043 -2.37561,0.60043 z m 0,-1.24002 q 0.9398,0 1.6316,-0.41768 0.70485,-0.41769 1.09644,-1.20086 0.39158,-0.78317 0.39158,-1.86655 0,-1.08339 -0.39158,-1.86655 -0.39159,-0.78317 -1.09644,-1.20086 -0.6918,-0.41769 -1.6316,-0.41769 -0.9398,0 -1.64465,0.41769 -0.70485,0.41769 -1.09644,1.20086 -0.37853,0.78316 -0.37853,1.86655 0,1.08338 0.37853,1.86655 0.39159,0.78317 1.09644,1.20086 0.70485,0.41768 1.64465,0.41768 z"
         style="font-style:normal;font-variant:normal;font-weight:500;font-stretch:normal;font-size:13.0528px;font-family:'DM Sans';-inkscape-font-specification:'DM Sans Medium';fill:#fad75c;stroke:none;stroke-width:0.264583"
         id="path1083" />
      <path
         d="m 349.03424,296.41264 v -9.13696 h 3.14573 q 1.08338,0 1.77518,0.36548 0.70485,0.36547 1.04422,0.99201 0.33937,0.61348 0.33937,1.37054 0,0.84843 -0.45684,1.54023 -0.4438,0.6918 -1.39665,0.99202 l 1.94486,3.87668 h -1.60549 l -1.77518,-3.68089 h -1.6316 v 3.68089 z m 1.3836,-4.72512 h 1.68381 q 0.9398,0 1.37054,-0.45684 0.4438,-0.45685 0.4438,-1.18781 0,-0.73096 -0.43074,-1.1617 -0.43075,-0.44379 -1.39665,-0.44379 h -1.67076 z"
         style="font-style:normal;font-variant:normal;font-weight:500;font-stretch:normal;font-size:13.0528px;font-family:'DM Sans';-inkscape-font-specification:'DM Sans Medium';fill:#fad75c;stroke:none;stroke-width:0.264583"
         id="path1085" />
      <path
         d="m 359.2193,296.41264 v -9.13696 h 1.6316 l 3.09352,6.0826 3.08046,-6.0826 h 1.6316 v 9.13696 h -1.3836 v -6.7483 l -2.7933,5.44302 h -1.07033 l -2.80635,-5.42997 v 6.73525 z"
         style="font-style:normal;font-variant:normal;font-weight:500;font-stretch:normal;font-size:13.0528px;font-family:'DM Sans';-inkscape-font-specification:'DM Sans Medium';fill:#fad75c;stroke:none;stroke-width:0.264583"
         id="path1087" />
      <path
         d="m 372.17156,296.41264 3.36762,-9.13696 h 1.51412 l 3.34152,9.13696 h -1.46191 l -0.78317,-2.23203 h -3.7331 l -0.78317,2.23203 z m 2.63666,-3.32847 h 2.94994 l -1.47497,-4.16384 z"
         style="font-style:normal;font-variant:normal;font-weight:500;font-stretch:normal;font-size:13.0528px;font-family:'DM Sans';-inkscape-font-specification:'DM Sans Medium';fill:#fad75c;stroke:none;stroke-width:0.264583"
         id="path1089" />
      <path
         d="m 387.47329,296.56927 q -1.35749,0 -2.34951,-0.58738 -0.97896,-0.60042 -1.51412,-1.6577 -0.53517,-1.07033 -0.53517,-2.46698 0,-1.4097 0.53517,-2.46698 0.53516,-1.07033 1.51412,-1.67076 0.99202,-0.60043 2.34951,-0.60043 1.60549,0 2.62361,0.78317 1.01812,0.78317 1.29223,2.19287 h -1.54023 q -0.18274,-0.79622 -0.78317,-1.26612 -0.60043,-0.4699 -1.6055,-0.4699 -1.37054,0 -2.16676,0.9398 -0.79622,0.92675 -0.79622,2.55835 0,1.61855 0.79622,2.5453 0.79622,0.92674 2.16676,0.92674 1.00507,0 1.6055,-0.44379 0.60043,-0.4438 0.78317,-1.21391 h 1.54023 q -0.27411,1.35749 -1.29223,2.12761 -1.01812,0.77011 -2.62361,0.77011 z"
         style="font-style:normal;font-variant:normal;font-weight:500;font-stretch:normal;font-size:13.0528px;font-family:'DM Sans';-inkscape-font-specification:'DM Sans Medium';fill:#fad75c;stroke:none;stroke-width:0.264583"
         id="path1091" />
      <path
         d="m 395.16524,296.41264 v -9.13696 h 1.3836 v 9.13696 z"
         style="font-style:normal;font-variant:normal;font-weight:500;font-stretch:normal;font-size:13.0528px;font-family:'DM Sans';-inkscape-font-specification:'DM Sans Medium';fill:#fad75c;stroke:none;stroke-width:0.264583"
         id="path1093" />
      <path
         d="m 404.86734,296.56927 q -1.35749,0 -2.37561,-0.60043 -1.01812,-0.60043 -1.59244,-1.6577 -0.57433,-1.07033 -0.57433,-2.46698 0,-1.39665 0.57433,-2.45393 0.57432,-1.07033 1.59244,-1.67076 1.01812,-0.60043 2.37561,-0.60043 1.35749,0 2.37561,0.60043 1.01811,0.60043 1.57938,1.67076 0.57433,1.05728 0.57433,2.45393 0,1.39665 -0.57433,2.46698 -0.56127,1.05727 -1.57938,1.6577 -1.01812,0.60043 -2.37561,0.60043 z m 0,-1.24002 q 0.9398,0 1.6316,-0.41768 0.70485,-0.41769 1.09643,-1.20086 0.39159,-0.78317 0.39159,-1.86655 0,-1.08339 -0.39159,-1.86655 -0.39158,-0.78317 -1.09643,-1.20086 -0.6918,-0.41769 -1.6316,-0.41769 -0.93981,0 -1.64466,0.41769 -0.70485,0.41769 -1.09643,1.20086 -0.37853,0.78316 -0.37853,1.86655 0,1.08338 0.37853,1.86655 0.39158,0.78317 1.09643,1.20086 0.70485,0.41768 1.64466,0.41768 z m -0.61349,-8.58874 v -0.99201 l 2.84552,-1.61855 v 1.14865 z"
         style="font-style:normal;font-variant:normal;font-weight:500;font-stretch:normal;font-size:13.0528px;font-family:'DM Sans';-inkscape-font-specification:'DM Sans Medium';fill:#fad75c;stroke:none;stroke-width:0.264583"
         id="path1095" />
      <path
         d="m 413.18583,296.41264 v -9.13696 h 1.38359 l 4.58154,6.87882 v -6.87882 h 1.38359 v 9.13696 h -1.38359 l -4.58154,-6.87883 v 6.87883 z"
         style="font-style:normal;font-variant:normal;font-weight:500;font-stretch:normal;font-size:13.0528px;font-family:'DM Sans';-inkscape-font-specification:'DM Sans Medium';fill:#fad75c;stroke:none;stroke-width:0.264583"
         id="path1097" />
      <path
         d="m 430.17526,296.41264 v -9.13696 h 3.19794 q 1.07033,0 1.77518,0.36548 0.70485,0.35242 1.04422,0.97896 0.35243,0.61348 0.35243,1.39665 0,0.744 -0.33938,1.37054 -0.32632,0.61348 -1.03117,0.97896 -0.70485,0.36548 -1.80128,0.36548 h -1.81434 v 3.68089 z m 1.3836,-4.81649 h 1.74907 q 0.97896,0 1.39665,-0.41769 0.43075,-0.43074 0.43075,-1.16169 0,-0.75707 -0.43075,-1.17476 -0.41769,-0.43074 -1.39665,-0.43074 h -1.74907 z"
         style="font-style:normal;font-variant:normal;font-weight:500;font-stretch:normal;font-size:13.0528px;font-family:'DM Sans';-inkscape-font-specification:'DM Sans Medium';fill:#fad75c;stroke:none;stroke-width:0.264583"
         id="path1099" />
      <path
         d="m 440.16451,296.41264 v -9.13696 h 3.14573 q 1.08338,0 1.77518,0.36548 0.70485,0.36547 1.04422,0.99201 0.33937,0.61348 0.33937,1.37054 0,0.84843 -0.45684,1.54023 -0.4438,0.6918 -1.39665,0.99202 l 1.94486,3.87668 h -1.60549 l -1.77518,-3.68089 h -1.6316 v 3.68089 z m 1.3836,-4.72512 h 1.68381 q 0.9398,0 1.37054,-0.45684 0.4438,-0.45685 0.4438,-1.18781 0,-0.73096 -0.43074,-1.1617 -0.43075,-0.44379 -1.39665,-0.44379 h -1.67076 z"
         style="font-style:normal;font-variant:normal;font-weight:500;font-stretch:normal;font-size:13.0528px;font-family:'DM Sans';-inkscape-font-specification:'DM Sans Medium';fill:#fad75c;stroke:none;stroke-width:0.264583"
         id="path1101" />
      <path
         d="m 454.56562,296.56927 q -1.35749,0 -2.37561,-0.60043 -1.01811,-0.60043 -1.59244,-1.6577 -0.57432,-1.07033 -0.57432,-2.46698 0,-1.39665 0.57432,-2.45393 0.57433,-1.07033 1.59244,-1.67076 1.01812,-0.60043 2.37561,-0.60043 1.3575,0 2.37561,0.60043 1.01812,0.60043 1.57939,1.67076 0.57433,1.05728 0.57433,2.45393 0,1.39665 -0.57433,2.46698 -0.56127,1.05727 -1.57939,1.6577 -1.01811,0.60043 -2.37561,0.60043 z m 0,-1.24002 q 0.93981,0 1.6316,-0.41768 0.70486,-0.41769 1.09644,-1.20086 0.39158,-0.78317 0.39158,-1.86655 0,-1.08339 -0.39158,-1.86655 -0.39158,-0.78317 -1.09644,-1.20086 -0.69179,-0.41769 -1.6316,-0.41769 -0.9398,0 -1.64465,0.41769 -0.70485,0.41769 -1.09643,1.20086 -0.37853,0.78316 -0.37853,1.86655 0,1.08338 0.37853,1.86655 0.39158,0.78317 1.09643,1.20086 0.70485,0.41768 1.64465,0.41768 z"
         style="font-style:normal;font-variant:normal;font-weight:500;font-stretch:normal;font-size:13.0528px;font-family:'DM Sans';-inkscape-font-specification:'DM Sans Medium';fill:#fad75c;stroke:none;stroke-width:0.264583"
         id="path1103" />
      <path
         d="m 462.88412,296.41264 v -9.13696 h 5.73018 v 1.12254 h -4.34659 v 2.88467 h 3.60258 v 1.10948 h -3.60258 v 4.02027 z"
         style="font-style:normal;font-variant:normal;font-weight:500;font-stretch:normal;font-size:13.0528px;font-family:'DM Sans';-inkscape-font-specification:'DM Sans Medium';fill:#fad75c;stroke:none;stroke-width:0.264583"
         id="path1105" />
      <path
         d="m 472.22074,296.41264 v -9.13696 h 5.8085 v 1.12254 h -4.4249 v 2.84551 h 4.03331 v 1.09643 h -4.03331 v 2.94994 h 4.4249 v 1.12254 z"
         style="font-style:normal;font-variant:normal;font-weight:500;font-stretch:normal;font-size:13.0528px;font-family:'DM Sans';-inkscape-font-specification:'DM Sans Medium';fill:#fad75c;stroke:none;stroke-width:0.264583"
         id="path1107" />
      <path
         d="m 484.93804,296.56927 q -1.00507,0 -1.76213,-0.35242 -0.75706,-0.35243 -1.1878,-1.00507 -0.41769,-0.65264 -0.43075,-1.55328 h 1.46192 q 0.0131,0.73095 0.50906,1.24001 0.496,0.50906 1.39665,0.50906 0.79622,0 1.24001,-0.37853 0.45685,-0.39158 0.45685,-0.99201 0,-0.48296 -0.2219,-0.78317 -0.20884,-0.30021 -0.58737,-0.49601 -0.36548,-0.19579 -0.84843,-0.35242 -0.48296,-0.15664 -1.01812,-0.33938 -1.05728,-0.35242 -1.59245,-0.91369 -0.52211,-0.56127 -0.52211,-1.47497 -0.0131,-0.77011 0.35243,-1.34444 0.37853,-0.57432 1.04422,-0.88759 0.67875,-0.32632 1.57939,-0.32632 0.88759,0 1.55328,0.32632 0.67875,0.32632 1.05728,0.9137 0.37853,0.57432 0.39159,1.34444 h -1.46192 q 0,-0.35243 -0.18274,-0.66569 -0.18274,-0.32632 -0.53516,-0.53517 -0.35243,-0.20884 -0.86149,-0.20884 -0.65264,-0.0131 -1.08338,0.32632 -0.41769,0.33937 -0.41769,0.9398 0,0.53516 0.31327,0.82232 0.31327,0.28717 0.86148,0.48296 0.54822,0.18274 1.25307,0.43074 0.67875,0.2219 1.21391,0.53516 0.53517,0.31327 0.84843,0.82233 0.32632,0.50906 0.32632,1.29223 0,0.6918 -0.35242,1.29223 -0.35243,0.58737 -1.05728,0.9659 -0.70485,0.36548 -1.73602,0.36548 z"
         style="font-style:normal;font-variant:normal;font-weight:500;font-stretch:normal;font-size:13.0528px;font-family:'DM Sans';-inkscape-font-specification:'DM Sans Medium';fill:#fad75c;stroke:none;stroke-width:0.264583"
         id="path1109" />
      <path
         d="m 491.84684,296.41264 v -9.13696 h 1.3836 v 9.13696 z"
         style="font-style:normal;font-variant:normal;font-weight:500;font-stretch:normal;font-size:13.0528px;font-family:'DM Sans';-inkscape-font-specification:'DM Sans Medium';fill:#fad75c;stroke:none;stroke-width:0.264583"
         id="path1111" />
      <path
         d="m 501.54893,296.56927 q -1.35749,0 -2.37561,-0.60043 -1.01812,-0.60043 -1.59244,-1.6577 -0.57432,-1.07033 -0.57432,-2.46698 0,-1.39665 0.57432,-2.45393 0.57432,-1.07033 1.59244,-1.67076 1.01812,-0.60043 2.37561,-0.60043 1.35749,0 2.37561,0.60043 1.01812,0.60043 1.57939,1.67076 0.57432,1.05728 0.57432,2.45393 0,1.39665 -0.57432,2.46698 -0.56127,1.05727 -1.57939,1.6577 -1.01812,0.60043 -2.37561,0.60043 z m 0,-1.24002 q 0.9398,0 1.6316,-0.41768 0.70485,-0.41769 1.09644,-1.20086 0.39158,-0.78317 0.39158,-1.86655 0,-1.08339 -0.39158,-1.86655 -0.39159,-0.78317 -1.09644,-1.20086 -0.6918,-0.41769 -1.6316,-0.41769 -0.9398,0 -1.64465,0.41769 -0.70485,0.41769 -1.09644,1.20086 -0.37853,0.78316 -0.37853,1.86655 0,1.08338 0.37853,1.86655 0.39159,0.78317 1.09644,1.20086 0.70485,0.41768 1.64465,0.41768 z"
         style="font-style:normal;font-variant:normal;font-weight:500;font-stretch:normal;font-size:13.0528px;font-family:'DM Sans';-inkscape-font-specification:'DM Sans Medium';fill:#fad75c;stroke:none;stroke-width:0.264583"
         id="path1113" />
      <path
         d="m 509.86742,296.41264 v -9.13696 h 1.3836 l 4.58153,6.87882 v -6.87882 h 1.3836 v 9.13696 h -1.3836 l -4.58153,-6.87883 v 6.87883 z"
         style="font-style:normal;font-variant:normal;font-weight:500;font-stretch:normal;font-size:13.0528px;font-family:'DM Sans';-inkscape-font-specification:'DM Sans Medium';fill:#fad75c;stroke:none;stroke-width:0.264583"
         id="path1115" />
      <path
         d="m 520.73123,296.41264 3.36763,-9.13696 h 1.51412 l 3.34152,9.13696 h -1.46192 l -0.78316,-2.23203 h -3.7331 l -0.78317,2.23203 z m 2.63667,-3.32847 h 2.94993 l -1.47496,-4.16384 z"
         style="font-style:normal;font-variant:normal;font-weight:500;font-stretch:normal;font-size:13.0528px;font-family:'DM Sans';-inkscape-font-specification:'DM Sans Medium';fill:#fad75c;stroke:none;stroke-width:0.264583"
         id="path1117" />
      <path
         d="m 532.48261,296.41264 v -9.13696 h 1.3836 v 8.04052 h 4.15079 v 1.09644 z"
         style="font-style:normal;font-variant:normal;font-weight:500;font-stretch:normal;font-size:13.0528px;font-family:'DM Sans';-inkscape-font-specification:'DM Sans Medium';fill:#fad75c;stroke:none;stroke-width:0.264583"
         id="path1119" />
    </g>
    <g
       aria-label="APOLO"
       id="text933"
       style="font-style:normal;font-variant:normal;font-weight:normal;font-stretch:normal;font-size:40.5694px;line-height:1.25;font-family:Now;-inkscape-font-specification:Now;letter-spacing:-1.39965px;word-spacing:0px;fill:#fad75c;stroke-width:0.264583">
      <path
         d="m 213.39747,249.97392 h 7.15036 l -10.95374,-30.42705 h -7.50534 l -10.95374,30.42705 h 7.15036 l 1.87633,-5.73043 h 11.35944 z m -11.46085,-11.30872 3.9048,-12.06939 3.90481,12.06939 z"
         style="font-style:normal;font-variant:normal;font-weight:normal;font-stretch:normal;font-size:40.5694px;font-family:Now;-inkscape-font-specification:Now;fill:#fad75c;stroke-width:0.264583"
         id="path935" />
      <path
         d="m 234.41239,219.54687 h -12.9315 v 30.42705 h 6.69395 v -12.32295 h 6.23755 c 5.12188,0 9.0774,-3.80338 9.0774,-8.92527 0,-5.07118 -3.95552,-9.17883 -9.0774,-9.17883 z m -1.06495,12.57652 h -5.1726 v -6.69395 h 5.1726 c 2.12989,0 3.75267,1.36921 3.75267,3.34697 0,2.02847 -1.62278,3.34698 -3.75267,3.34698 z"
         style="font-style:normal;font-variant:normal;font-weight:normal;font-stretch:normal;font-size:40.5694px;font-family:Now;-inkscape-font-specification:Now;fill:#fad75c;stroke-width:0.264583"
         id="path937" />
      <path
         d="m 259.78847,250.37962 c 8.67171,0 15.61922,-6.99822 15.61922,-15.61922 0,-8.621 -6.94751,-15.61922 -15.61922,-15.61922 -8.62099,0 -15.61922,6.99822 -15.61922,15.61922 0,8.621 6.99823,15.61922 15.61922,15.61922 z m 0,-6.54182 c -5.12188,0 -9.02669,-3.95552 -9.02669,-9.0774 0,-5.12189 3.90481,-9.07741 9.02669,-9.07741 5.1726,0 9.07741,3.95552 9.07741,9.07741 0,5.12188 -3.90481,9.0774 -9.07741,9.0774 z"
         style="font-style:normal;font-variant:normal;font-weight:normal;font-stretch:normal;font-size:40.5694px;font-family:Now;-inkscape-font-specification:Now;fill:#fad75c;stroke-width:0.264583"
         id="path939" />
      <path
         d="m 285.62098,244.04065 v -24.49378 h -6.69395 v 30.42705 h 16.78559 v -5.93327 z"
         style="font-style:normal;font-variant:normal;font-weight:normal;font-stretch:normal;font-size:40.5694px;font-family:Now;-inkscape-font-specification:Now;fill:#fad75c;stroke-width:0.264583"
         id="path941" />
      <path
         d="m 311.90994,250.37962 c 8.67171,0 15.61922,-6.99822 15.61922,-15.61922 0,-8.621 -6.94751,-15.61922 -15.61922,-15.61922 -8.621,0 -15.61922,6.99822 -15.61922,15.61922 0,8.621 6.99822,15.61922 15.61922,15.61922 z m 0,-6.54182 c -5.12189,0 -9.02669,-3.95552 -9.02669,-9.0774 0,-5.12189 3.9048,-9.07741 9.02669,-9.07741 5.1726,0 9.0774,3.95552 9.0774,9.07741 0,5.12188 -3.9048,9.0774 -9.0774,9.0774 z"
         style="font-style:normal;font-variant:normal;font-weight:normal;font-stretch:normal;font-size:40.5694px;font-family:Now;-inkscape-font-specification:Now;fill:#fad75c;stroke-width:0.264583"
         id="path943" />
    </g>
  </g>
  <g
     inkscape:groupmode="layer"
     id="layer2"
     inkscape:label="Background"
     style="display:inline;opacity:1;filter:url(#filter866)"
     transform="translate(-40.188025,-148.90262)">
    <path
       id="rect25-6"
       transform="matrix(1,0,0,-1,2.5291995,119.61218)"
       clip-path="url(#clipPath1029)"
       d="M 52.978133,-159.63762 H 156.15017 c 6.68689,0 12.07021,5.38331 12.07021,12.07021 v 102.946813 c 0,6.686894 -5.38332,12.070205 -12.07021,12.070205 H 52.978133 c -6.686893,0 -12.070205,-5.383311 -12.070205,-12.070205 V -147.56741 c 0,-6.6869 5.383312,-12.07021 12.070205,-12.07021 z"
       style="display:inline;opacity:1;fill:#ff9061;stroke:none;stroke-width:0.286651;stroke-miterlimit:4;stroke-dasharray:none;filter:url(#filter866)" />
    <path
       id="rect25"
       style="display:inline;opacity:1;fill:#66cfcb;stroke:none;stroke-width:1.887;stroke-miterlimit:4;stroke-dasharray:none;stroke-opacity:1;paint-order:stroke markers fill;filter:url(#filter866)"
       transform="matrix(1,0,0,-1,-2.8125e-6,-4.9416667e-4)"
       d="M 52.263728,-275.99585 H 155.43577 c 6.68689,0 12.0702,5.38331 12.0702,12.07021 v 102.94681 c 0,6.6869 -5.38331,12.07021 -12.0702,12.07021 H 52.263728 c -6.686893,0 -12.070205,-5.38331 -12.070205,-12.07021 v -102.94681 c 0,-6.6869 5.383312,-12.07021 12.070205,-12.07021 z" />
  </g>
  <g
     inkscape:groupmode="layer"
     id="g964"
     inkscape:label="OrangeBulb"
     style="display:inline;opacity:1;filter:url(#filter885)"
     transform="translate(-40.188025,-148.90262)">
    <g
       id="g962"
       transform="translate(2.55474,-1.9264856)">
      <g
         id="g960"
         transform="translate(-1.1899924,5.2116103)">
        <path
           style="color:#000000;font-style:normal;font-variant:normal;font-weight:normal;font-stretch:normal;font-size:medium;line-height:normal;font-family:sans-serif;font-variant-ligatures:normal;font-variant-position:normal;font-variant-caps:normal;font-variant-numeric:normal;font-variant-alternates:normal;font-variant-east-asian:normal;font-feature-settings:normal;font-variation-settings:normal;text-indent:0;text-align:start;text-decoration:none;text-decoration-line:none;text-decoration-style:solid;text-decoration-color:#000000;letter-spacing:normal;word-spacing:normal;text-transform:none;writing-mode:lr-tb;direction:ltr;text-orientation:mixed;dominant-baseline:auto;baseline-shift:baseline;text-anchor:start;white-space:normal;shape-padding:0;shape-margin:0;inline-size:0;clip-rule:nonzero;display:inline;overflow:visible;visibility:visible;opacity:1;isolation:auto;mix-blend-mode:normal;color-interpolation:sRGB;color-interpolation-filters:linearRGB;solid-color:#000000;solid-opacity:1;vector-effect:none;fill:#ff9061;fill-opacity:1;fill-rule:nonzero;stroke:none;stroke-linecap:butt;stroke-linejoin:round;stroke-miterlimit:4;stroke-dasharray:none;stroke-dashoffset:0;stroke-opacity:1;paint-order:stroke markers fill;color-rendering:auto;image-rendering:auto;shape-rendering:auto;text-rendering:auto;enable-background:accumulate;stop-color:#000000;stop-opacity:1"
           d="m 96.9375,249.99805 -2.701172,1.22265 c 2.104201,4.6514 7.155672,6.54205 11.822262,6.39258 4.6666,-0.14947 9.37991,-2.23841 10.88672,-6.4043 l -2.78906,-1.00781 c -0.90279,2.49593 -4.3763,4.32702 -8.19141,4.44922 -3.81511,0.1222 -7.54077,-1.36624 -9.02734,-4.65234 z"
           id="path932" />
        <path
           id="path934"
           style="fill:#ff9061;stroke:none;stroke-width:2.58351;stroke-miterlimit:4;stroke-dasharray:none;stroke-opacity:1;paint-order:stroke markers fill"
           d="m 105.50508,159.00302 c 0.93025,0 1.67915,0.84518 1.67915,1.89504 v 9.34659 c 0,1.04985 -0.7489,1.89504 -1.67915,1.89504 -0.93025,0 -1.67915,-0.84519 -1.67915,-1.89504 v -9.34659 c 0,-1.04986 0.7489,-1.89504 1.67915,-1.89504 z" />
        <path
           id="path936"
           style="fill:#ff9061;stroke:none;stroke-width:2.58351;stroke-miterlimit:4;stroke-dasharray:none;stroke-opacity:1;paint-order:stroke markers fill"
           d="m 71.097363,173.40195 c 0.657785,-0.65779 1.784977,-0.5897 2.527333,0.15266 l 6.609037,6.60903 c 0.742356,0.74236 0.810443,1.86955 0.152659,2.52734 -0.657786,0.65778 -1.784978,0.5897 -2.527334,-0.15266 l -6.609037,-6.60904 c -0.742356,-0.74235 -0.810443,-1.86955 -0.152658,-2.52733 z" />
        <path
           id="path938"
           style="fill:#ff9061;stroke:none;stroke-width:2.58351;stroke-miterlimit:4;stroke-dasharray:none;stroke-opacity:1;paint-order:stroke markers fill"
           d="m 56.829316,207.75645 c 0,-0.93024 0.845188,-1.67915 1.89504,-1.67915 h 9.346594 c 1.049853,0 1.895041,0.74891 1.895041,1.67915 0,0.93025 -0.845188,1.67915 -1.895041,1.67915 h -9.346594 c -1.049852,0 -1.89504,-0.7489 -1.89504,-1.67915 z" />
        <path
           id="path940"
           style="fill:#ff9061;stroke:none;stroke-width:2.58351;stroke-miterlimit:4;stroke-dasharray:none;stroke-opacity:1;paint-order:stroke markers fill"
           d="m 70.987656,242.08167 c -0.657786,-0.65779 -0.589699,-1.78498 0.152657,-2.52734 l 6.609044,-6.60904 c 0.742356,-0.74236 1.869548,-0.81044 2.527334,-0.15266 0.657779,0.65778 0.589692,1.78497 -0.152664,2.52733 l -6.609044,6.60904 c -0.742357,0.74236 -1.869548,0.81045 -2.527327,0.15267 z" />
        <path
           id="path942"
           style="fill:#ff9061;stroke:none;stroke-width:2.58351;stroke-miterlimit:4;stroke-dasharray:none;stroke-opacity:1;paint-order:stroke markers fill"
           d="m 139.91263,173.40192 c -0.65779,-0.65778 -1.78498,-0.5897 -2.52734,0.15266 l -6.60904,6.60904 c -0.74235,0.74236 -0.81044,1.86955 -0.15265,2.52733 0.65777,0.65778 1.78497,0.5897 2.52733,-0.15265 l 6.60904,-6.60904 c 0.74236,-0.74236 0.81044,-1.86956 0.15266,-2.52734 z" />
        <path
           id="path944"
           style="fill:#ff9061;stroke:none;stroke-width:2.58351;stroke-miterlimit:4;stroke-dasharray:none;stroke-opacity:1;paint-order:stroke markers fill"
           d="m 154.18083,207.75645 c 0,-0.93024 -0.84519,-1.67915 -1.89504,-1.67915 h -9.3466 c -1.04985,0 -1.89504,0.74891 -1.89504,1.67915 0,0.93025 0.84519,1.67915 1.89504,1.67915 h 9.3466 c 1.04985,0 1.89504,-0.7489 1.89504,-1.67915 z" />
        <path
           id="path946"
           style="fill:#ff9061;stroke:none;stroke-width:2.58351;stroke-miterlimit:4;stroke-dasharray:none;stroke-opacity:1;paint-order:stroke markers fill"
           d="m 140.02246,242.08181 c 0.65779,-0.65779 0.58971,-1.78497 -0.15266,-2.52733 l -6.60903,-6.60904 c -0.74236,-0.74236 -1.86955,-0.81044 -2.52734,-0.15266 -0.65778,0.65779 -0.58969,1.78498 0.15266,2.52733 l 6.60904,6.60904 c 0.74236,0.74236 1.86955,0.81044 2.52733,0.15266 z" />
        <path
           style="color:#000000;font-style:normal;font-variant:normal;font-weight:normal;font-stretch:normal;font-size:medium;line-height:normal;font-family:sans-serif;font-variant-ligatures:normal;font-variant-position:normal;font-variant-caps:normal;font-variant-numeric:normal;font-variant-alternates:normal;font-variant-east-asian:normal;font-feature-settings:normal;font-variation-settings:normal;text-indent:0;text-align:start;text-decoration:none;text-decoration-line:none;text-decoration-style:solid;text-decoration-color:#000000;letter-spacing:normal;word-spacing:normal;text-transform:none;writing-mode:lr-tb;direction:ltr;text-orientation:mixed;dominant-baseline:auto;baseline-shift:baseline;text-anchor:start;white-space:normal;shape-padding:0;shape-margin:0;inline-size:0;clip-rule:nonzero;display:inline;overflow:visible;visibility:visible;opacity:1;isolation:auto;mix-blend-mode:normal;color-interpolation:sRGB;color-interpolation-filters:linearRGB;solid-color:#000000;solid-opacity:1;vector-effect:none;fill:#ff9061;fill-opacity:1;fill-rule:nonzero;stroke:none;stroke-linecap:butt;stroke-linejoin:miter;stroke-miterlimit:4;stroke-dasharray:none;stroke-dashoffset:0;stroke-opacity:1;color-rendering:auto;image-rendering:auto;shape-rendering:auto;text-rendering:auto;enable-background:accumulate;stop-color:#000000;stop-opacity:1"
           d="m 99.125,215.66211 c -1.499459,-0.1903 -2.909143,0.61289 -3.576172,1.74414 -0.667029,1.13125 -0.769203,2.52553 -0.30664,3.83984 l 0.05078,0.14063 0.07617,0.1289 c 1.198958,2.00664 2.833037,2.84112 4.445312,3.43165 -0.13908,3.37113 -0.898353,6.89819 -2.388672,10.3457 l 2.722662,1.17773 c 1.48495,-3.4351 2.54936,-7.06007 2.8125,-10.65429 1.90333,0.15817 3.73335,0.15918 5.48633,-0.004 0.26262,3.59557 1.32894,7.2218 2.81445,10.6582 l 2.72266,-1.17773 c -1.4906,-3.44815 -2.24793,-6.97598 -2.38672,-10.34766 1.61152,-0.59058 3.24695,-1.42405 4.44531,-3.42969 l 0.0762,-0.1289 0.0488,-0.14063 c 0.46256,-1.31431 0.36234,-2.70859 -0.30469,-3.83984 -0.66703,-1.13125 -2.07866,-1.93444 -3.57812,-1.74414 l -0.13282,0.0156 -0.12695,0.041 c -1.55914,0.49254 -2.52598,1.7845 -2.9668,3.01758 -0.43717,1.22288 -0.51851,2.4615 -0.58984,3.49414 -1.7e-4,0.002 1.7e-4,0.004 0,0.006 -0.0186,0.20877 0.008,0.42141 -0.004,0.63086 -1.71435,0.18075 -3.55719,0.17591 -5.51757,-0.002 -0.0119,-0.2049 0.0141,-0.41292 -0.004,-0.61718 -0.0716,-1.03568 -0.15244,-2.28274 -0.5918,-3.51172 -0.44082,-1.23308 -1.40766,-2.52504 -2.966797,-3.01758 l -0.126954,-0.041 z m -0.519531,3.01172 c 0.462138,0.19129 0.729448,0.43487 0.953125,1.06055 0.191945,0.53691 0.256711,1.32832 0.328125,2.09179 -0.699068,-0.36279 -1.30615,-0.87555 -1.841797,-1.70898 -0.117678,-0.47595 -0.08979,-0.95674 0.05664,-1.20508 0.126975,-0.21534 0.284495,-0.22957 0.503907,-0.23828 z m 14.201171,0 c 0.21776,0.009 0.37538,0.0236 0.50195,0.23828 0.14643,0.24834 0.17432,0.72913 0.0566,1.20508 -0.53564,0.83343 -1.14272,1.34619 -1.84179,1.70898 0.0714,-0.76347 0.13618,-1.55488 0.32812,-2.09179 0.2237,-0.62574 0.49285,-0.86926 0.95508,-1.06055 z"
           id="path950" />
        <path
           style="color:#000000;font-style:normal;font-variant:normal;font-weight:normal;font-stretch:normal;font-size:medium;line-height:normal;font-family:sans-serif;font-variant-ligatures:normal;font-variant-position:normal;font-variant-caps:normal;font-variant-numeric:normal;font-variant-alternates:normal;font-variant-east-asian:normal;font-feature-settings:normal;font-variation-settings:normal;text-indent:0;text-align:start;text-decoration:none;text-decoration-line:none;text-decoration-style:solid;text-decoration-color:#000000;letter-spacing:normal;word-spacing:normal;text-transform:none;writing-mode:lr-tb;direction:ltr;text-orientation:mixed;dominant-baseline:auto;baseline-shift:baseline;text-anchor:start;white-space:normal;shape-padding:0;shape-margin:0;inline-size:0;clip-rule:nonzero;display:inline;overflow:visible;visibility:visible;opacity:1;isolation:auto;mix-blend-mode:normal;color-interpolation:sRGB;color-interpolation-filters:linearRGB;solid-color:#000000;solid-opacity:1;vector-effect:none;fill:#ff9061;fill-opacity:1;fill-rule:nonzero;stroke:none;stroke-linecap:butt;stroke-linejoin:miter;stroke-miterlimit:4;stroke-dasharray:none;stroke-dashoffset:0;stroke-opacity:1;color-rendering:auto;image-rendering:auto;shape-rendering:auto;text-rendering:auto;enable-background:accumulate;stop-color:#000000;stop-opacity:1"
           d="m 83.675781,219.3457 -0.06055,-0.10547 c 2.49389,4.88385 5.502419,9.63373 7.259766,14.51954 l 0.02344,0.0644 0.0293,0.0625 c 0,0 0.404024,0.86616 0.800782,1.88867 0.396757,1.02251 0.708072,2.3917 0.707031,2.42188 l 2.962891,0.10351 c 0.04621,-1.33998 -0.467711,-2.46747 -0.90625,-3.59766 -0.43854,-1.13018 -0.878907,-2.07226 -0.878907,-2.07226 l 0.05078,0.125 C 91.752771,227.442 88.660372,222.59939 86.255861,217.89057 l -0.02734,-0.0547 -0.0332,-0.0508 c -8.725227,-14.07678 1.193162,-33.60084 19.242189,-33.66993 18.04771,0.0705 27.96514,19.59368 19.24023,33.66993 l -0.0332,0.0508 -0.0273,0.0547 c -2.40451,4.70882 -5.49691,9.55143 -7.40821,14.86524 l 0.0508,-0.125 c 0,0 -0.44232,0.94208 -0.88086,2.07226 -0.43854,1.13019 -0.95051,2.25768 -0.9043,3.59766 l 2.96289,-0.10351 c -0.001,-0.0302 0.31027,-1.39937 0.70703,-2.42188 0.39676,-1.02251 0.80078,-1.88867 0.80078,-1.88867 l 0.0293,-0.0625 0.0234,-0.0644 c 1.75734,-4.88581 4.76587,-9.63569 7.25976,-14.51954 l -0.0605,0.10547 c 9.90731,-15.98386 -1.55547,-38.12127 -21.76079,-38.12129 -20.205316,-2e-5 -31.668063,22.13743 -21.760759,38.12129 z"
           id="path948"
           sodipodi:nodetypes="cccccsccscccccccccccsccsccccccc" />
        <g
           id="g958"
           transform="translate(2.7105565,116.50756)"
           style="fill:#fad75c">
          <path
             id="path952"
             style="fill:#fad75c;stroke:none;stroke-width:3.13186;stroke-miterlimit:4;stroke-dasharray:none;stroke-opacity:1;paint-order:stroke markers fill"
             d="m 89.064147,124.06756 h 27.454533 c 0.94598,0 1.70755,0.8497 1.70755,1.90515 v 1.63183 c 0,1.05546 -0.76157,1.90516 -1.70755,1.90516 H 89.064147 c -0.945982,0 -1.707549,-0.8497 -1.707549,-1.90516 v -1.63183 c 0,-1.05545 0.761567,-1.90515 1.707549,-1.90515 z" />
          <path
             id="path954"
             style="fill:#fad75c;stroke:none;stroke-width:3.13186;stroke-miterlimit:4;stroke-dasharray:none;stroke-opacity:1;paint-order:stroke markers fill"
             d="m 89.064147,118.52807 h 27.454533 c 0.94598,0 1.70755,0.8497 1.70755,1.90515 v 1.63183 c 0,1.05546 -0.76157,1.90516 -1.70755,1.90516 H 89.064147 c -0.945982,0 -1.707549,-0.8497 -1.707549,-1.90516 v -1.63183 c 0,-1.05545 0.761567,-1.90515 1.707549,-1.90515 z" />
          <path
             id="path956"
             style="fill:#fad75c;stroke:none;stroke-width:3.13186;stroke-miterlimit:4;stroke-dasharray:none;stroke-opacity:1;paint-order:stroke markers fill"
             d="m 89.064147,129.62779 h 27.454533 c 0.94598,0 1.70755,0.8497 1.70755,1.90516 v 1.63183 c 0,1.05545 -0.76157,1.90515 -1.70755,1.90515 H 89.064147 c -0.945982,0 -1.707549,-0.8497 -1.707549,-1.90515 v -1.63183 c 0,-1.05546 0.761567,-1.90516 1.707549,-1.90516 z" />
        </g>
      </g>
    </g>
  </g>
  <g
     inkscape:groupmode="layer"
     id="layer3"
     inkscape:label="YellowBulb"
     style="display:inline;opacity:1;filter:url(#filter885)"
     transform="translate(-40.188025,-148.90262)">
    <g
       id="g2716"
       transform="translate(0.96723992,-1.9264856)">
      <g
         id="g2542"
         transform="translate(-1.1899924,5.2116103)">
        <path
           style="color:#000000;font-style:normal;font-variant:normal;font-weight:normal;font-stretch:normal;font-size:medium;line-height:normal;font-family:sans-serif;font-variant-ligatures:normal;font-variant-position:normal;font-variant-caps:normal;font-variant-numeric:normal;font-variant-alternates:normal;font-variant-east-asian:normal;font-feature-settings:normal;font-variation-settings:normal;text-indent:0;text-align:start;text-decoration:none;text-decoration-line:none;text-decoration-style:solid;text-decoration-color:#000000;letter-spacing:normal;word-spacing:normal;text-transform:none;writing-mode:lr-tb;direction:ltr;text-orientation:mixed;dominant-baseline:auto;baseline-shift:baseline;text-anchor:start;white-space:normal;shape-padding:0;shape-margin:0;inline-size:0;clip-rule:nonzero;display:inline;overflow:visible;visibility:visible;opacity:1;isolation:auto;mix-blend-mode:normal;color-interpolation:sRGB;color-interpolation-filters:linearRGB;solid-color:#000000;solid-opacity:1;vector-effect:none;fill:#fad75c;fill-opacity:1;fill-rule:nonzero;stroke:none;stroke-linecap:butt;stroke-linejoin:round;stroke-miterlimit:4;stroke-dasharray:none;stroke-dashoffset:0;stroke-opacity:1;paint-order:stroke markers fill;color-rendering:auto;image-rendering:auto;shape-rendering:auto;text-rendering:auto;enable-background:accumulate;stop-color:#000000;stop-opacity:1"
           d="m 95.878906,251.05664 -2.701172,1.22266 c 2.104201,4.65139 7.155666,6.54205 11.822266,6.39258 4.6666,-0.14948 9.3799,-2.23841 10.88672,-6.4043 l -2.78906,-1.00977 c -0.90279,2.49593 -4.3763,4.32898 -8.19141,4.45117 -3.81511,0.1222 -7.540773,-1.36623 -9.027344,-4.65234 z"
           id="path1179" />
        <path
           id="rect1042"
           style="fill:#fad75c;stroke:none;stroke-width:2.58351;stroke-miterlimit:4;stroke-dasharray:none;stroke-opacity:1;paint-order:stroke markers fill"
           d="m 104.44674,160.06136 c 0.93025,0 1.67915,0.84518 1.67915,1.89504 v 9.34659 c 0,1.04985 -0.7489,1.89504 -1.67915,1.89504 -0.93025,0 -1.67915,-0.84519 -1.67915,-1.89504 v -9.34659 c 0,-1.04986 0.7489,-1.89504 1.67915,-1.89504 z" />
        <path
           id="rect1042-2"
           style="fill:#fad75c;stroke:none;stroke-width:2.58351;stroke-miterlimit:4;stroke-dasharray:none;stroke-opacity:1;paint-order:stroke markers fill"
           d="m 70.039029,174.46029 c 0.657785,-0.65779 1.784977,-0.5897 2.527333,0.15266 l 6.609037,6.60903 c 0.742356,0.74236 0.810443,1.86955 0.152659,2.52734 -0.657786,0.65778 -1.784978,0.5897 -2.527334,-0.15266 l -6.609037,-6.60904 c -0.742356,-0.74235 -0.810443,-1.86955 -0.152658,-2.52733 z" />
        <path
           id="rect1042-8"
           style="fill:#fad75c;stroke:none;stroke-width:2.58351;stroke-miterlimit:4;stroke-dasharray:none;stroke-opacity:1;paint-order:stroke markers fill"
           d="m 55.770982,208.81479 c 0,-0.93024 0.845188,-1.67915 1.89504,-1.67915 h 9.346594 c 1.049853,0 1.895041,0.74891 1.895041,1.67915 0,0.93025 -0.845188,1.67915 -1.895041,1.67915 h -9.346594 c -1.049852,0 -1.89504,-0.7489 -1.89504,-1.67915 z" />
        <path
           id="rect1042-8-2"
           style="fill:#fad75c;stroke:none;stroke-width:2.58351;stroke-miterlimit:4;stroke-dasharray:none;stroke-opacity:1;paint-order:stroke markers fill"
           d="m 69.929322,243.14001 c -0.657786,-0.65779 -0.589699,-1.78498 0.152657,-2.52734 l 6.609044,-6.60904 c 0.742356,-0.74236 1.869548,-0.81044 2.527334,-0.15266 0.657779,0.65778 0.589692,1.78497 -0.152664,2.52733 l -6.609044,6.60904 c -0.742357,0.74236 -1.869548,0.81045 -2.527327,0.15267 z" />
        <path
           id="rect1120"
           style="fill:#fad75c;stroke:none;stroke-width:2.58351;stroke-miterlimit:4;stroke-dasharray:none;stroke-opacity:1;paint-order:stroke markers fill"
           d="m 138.85429,174.46026 c -0.65779,-0.65778 -1.78498,-0.5897 -2.52734,0.15266 l -6.60904,6.60904 c -0.74235,0.74236 -0.81044,1.86955 -0.15265,2.52733 0.65777,0.65778 1.78497,0.5897 2.52733,-0.15265 l 6.60904,-6.60904 c 0.74236,-0.74236 0.81044,-1.86956 0.15266,-2.52734 z" />
        <path
           id="rect1122"
           style="fill:#fad75c;stroke:none;stroke-width:2.58351;stroke-miterlimit:4;stroke-dasharray:none;stroke-opacity:1;paint-order:stroke markers fill"
           d="m 153.12249,208.81479 c 0,-0.93024 -0.84519,-1.67915 -1.89504,-1.67915 h -9.3466 c -1.04985,0 -1.89504,0.74891 -1.89504,1.67915 0,0.93025 0.84519,1.67915 1.89504,1.67915 h 9.3466 c 1.04985,0 1.89504,-0.7489 1.89504,-1.67915 z" />
        <path
           id="rect1124"
           style="fill:#fad75c;stroke:none;stroke-width:2.58351;stroke-miterlimit:4;stroke-dasharray:none;stroke-opacity:1;paint-order:stroke markers fill"
           d="m 138.96412,243.14015 c 0.65779,-0.65779 0.58971,-1.78497 -0.15266,-2.52733 l -6.60903,-6.60904 c -0.74236,-0.74236 -1.86955,-0.81044 -2.52734,-0.15266 -0.65778,0.65779 -0.58969,1.78498 0.15266,2.52733 l 6.60904,6.60904 c 0.74236,0.74236 1.86955,0.81044 2.52733,0.15266 z" />
        <path
           style="color:#000000;font-style:normal;font-variant:normal;font-weight:normal;font-stretch:normal;font-size:medium;line-height:normal;font-family:sans-serif;font-variant-ligatures:normal;font-variant-position:normal;font-variant-caps:normal;font-variant-numeric:normal;font-variant-alternates:normal;font-variant-east-asian:normal;font-feature-settings:normal;font-variation-settings:normal;text-indent:0;text-align:start;text-decoration:none;text-decoration-line:none;text-decoration-style:solid;text-decoration-color:#000000;letter-spacing:normal;word-spacing:normal;text-transform:none;writing-mode:lr-tb;direction:ltr;text-orientation:mixed;dominant-baseline:auto;baseline-shift:baseline;text-anchor:start;white-space:normal;shape-padding:0;shape-margin:0;inline-size:0;clip-rule:nonzero;display:inline;overflow:visible;visibility:visible;opacity:1;isolation:auto;mix-blend-mode:normal;color-interpolation:sRGB;color-interpolation-filters:linearRGB;solid-color:#000000;solid-opacity:1;vector-effect:none;fill:#fad75c;fill-opacity:1;fill-rule:nonzero;stroke:none;stroke-linecap:butt;stroke-linejoin:miter;stroke-miterlimit:4;stroke-dasharray:none;stroke-dashoffset:0;stroke-opacity:1;color-rendering:auto;image-rendering:auto;shape-rendering:auto;text-rendering:auto;enable-background:accumulate;stop-color:#000000;stop-opacity:1"
           d="m 82.617188,220.4043 -0.06055,-0.10547 c 2.493889,4.88384 5.502419,9.63372 7.259765,14.51953 l 0.02344,0.0644 0.0293,0.0625 c 0,0 0.404023,0.86616 0.800781,1.88867 0.396758,1.02251 0.708072,2.3917 0.707031,2.42188 l 2.962891,0.10156 c 0.04621,-1.33998 -0.467711,-2.46551 -0.90625,-3.5957 -0.43854,-1.13019 -0.878906,-2.07422 -0.878906,-2.07422 l 0.05078,0.12695 c -1.911294,-5.31381 -5.003693,-10.15642 -7.408203,-14.86523 l -0.02734,-0.0547 -0.0332,-0.0527 c -8.725228,-14.07678 1.193167,-33.59889 19.242193,-33.66797 18.04771,0.0705 27.96514,19.59172 19.24023,33.66797 l -0.0332,0.0527 -0.0273,0.0547 c -2.40451,4.70881 -5.49691,9.55142 -7.4082,14.86523 l 0.0508,-0.12695 c 0,0 -0.44036,0.94403 -0.8789,2.07422 -0.43854,1.13019 -0.95246,2.25572 -0.90625,3.5957 l 2.96289,-0.10156 c -0.001,-0.0302 0.31027,-1.39937 0.70703,-2.42188 0.39676,-1.02251 0.80078,-1.88867 0.80078,-1.88867 l 0.0293,-0.0625 0.0234,-0.0644 c 1.75735,-4.88581 4.76588,-9.63569 7.25977,-14.51953 l -0.0605,0.10547 c 9.90731,-15.98387 -1.55546,-38.12128 -21.7608,-38.1213 -20.205334,-2e-5 -31.668087,22.13743 -21.760782,38.1213 z"
           id="path1212"
           sodipodi:nodetypes="cccccsccscccccccccccsccsccccccc" />
        <path
           style="color:#000000;font-style:normal;font-variant:normal;font-weight:normal;font-stretch:normal;font-size:medium;line-height:normal;font-family:sans-serif;font-variant-ligatures:normal;font-variant-position:normal;font-variant-caps:normal;font-variant-numeric:normal;font-variant-alternates:normal;font-variant-east-asian:normal;font-feature-settings:normal;font-variation-settings:normal;text-indent:0;text-align:start;text-decoration:none;text-decoration-line:none;text-decoration-style:solid;text-decoration-color:#000000;letter-spacing:normal;word-spacing:normal;text-transform:none;writing-mode:lr-tb;direction:ltr;text-orientation:mixed;dominant-baseline:auto;baseline-shift:baseline;text-anchor:start;white-space:normal;shape-padding:0;shape-margin:0;inline-size:0;clip-rule:nonzero;display:inline;overflow:visible;visibility:visible;opacity:1;isolation:auto;mix-blend-mode:normal;color-interpolation:sRGB;color-interpolation-filters:linearRGB;solid-color:#000000;solid-opacity:1;vector-effect:none;fill:#fad75c;fill-opacity:1;fill-rule:nonzero;stroke:none;stroke-linecap:butt;stroke-linejoin:miter;stroke-miterlimit:4;stroke-dasharray:none;stroke-dashoffset:0;stroke-opacity:1;color-rendering:auto;image-rendering:auto;shape-rendering:auto;text-rendering:auto;enable-background:accumulate;stop-color:#000000;stop-opacity:1"
           d="m 98.066406,216.7207 c -1.499459,-0.1903 -2.909143,0.61094 -3.576172,1.74219 -0.667029,1.13125 -0.769203,2.52748 -0.30664,3.8418 l 0.05078,0.14062 0.07617,0.12696 c 1.19881,2.00639 2.833224,2.84305 4.445312,3.43359 -0.139079,3.37113 -0.896403,6.89819 -2.386718,10.3457 l 2.720703,1.17578 c 1.484949,-3.4351 2.549369,-7.05811 2.812499,-10.65234 1.90333,0.15817 3.73336,0.15918 5.48633,-0.004 0.26263,3.59557 1.32894,7.21985 2.81445,10.65625 l 2.72266,-1.17578 c -1.4903,-3.44749 -2.24763,-6.97458 -2.38672,-10.3457 1.61209,-0.59054 3.2465,-1.4272 4.44532,-3.43359 l 0.0762,-0.12696 0.0488,-0.14062 c 0.46255,-1.31432 0.36234,-2.71055 -0.30469,-3.8418 -0.66703,-1.13125 -2.07867,-1.93249 -3.57813,-1.74219 l -0.13086,0.0156 -0.1289,0.041 c -1.55914,0.49254 -2.52403,1.7845 -2.96485,3.01758 -0.43935,1.22898 -0.52022,2.47604 -0.59179,3.51172 -0.0181,0.2048 0.008,0.4137 -0.004,0.61914 -1.71435,0.18076 -3.55719,0.17592 -5.51758,-0.002 -0.0119,-0.2048 0.0141,-0.41303 -0.004,-0.61719 -0.0716,-1.03568 -0.15245,-2.28274 -0.5918,-3.51172 -0.44082,-1.23308 -1.407666,-2.52504 -2.966801,-3.01758 l -0.126953,-0.041 z m -0.519531,3.00977 c 0.463131,0.19125 0.72922,0.43618 0.953125,1.0625 0.191595,0.53594 0.256708,1.32595 0.328125,2.08789 -0.698538,-0.36274 -1.306467,-0.87217 -1.841797,-1.70508 -0.117768,-0.47604 -0.08982,-0.95865 0.05664,-1.20703 0.127122,-0.21559 0.283884,-0.22977 0.503907,-0.23828 z m 14.201175,0 c 0.21964,0.009 0.37492,0.0228 0.50195,0.23828 0.14646,0.24838 0.17441,0.73099 0.0566,1.20703 -0.53533,0.83291 -1.14326,1.34234 -1.8418,1.70508 0.0714,-0.76194 0.13653,-1.55195 0.32813,-2.08789 0.22393,-0.62638 0.49185,-0.87125 0.95508,-1.0625 z"
           id="path39" />
        <g
           id="g1195"
           transform="translate(1.6522231,117.5659)">
          <path
             id="rect1126-1"
             style="fill:#ff9061;stroke:none;stroke-width:3.13186;stroke-miterlimit:4;stroke-dasharray:none;stroke-opacity:1;paint-order:stroke markers fill"
             d="m 89.064147,124.06756 h 27.454533 c 0.94598,0 1.70755,0.8497 1.70755,1.90515 v 1.63183 c 0,1.05546 -0.76157,1.90516 -1.70755,1.90516 H 89.064147 c -0.945982,0 -1.707549,-0.8497 -1.707549,-1.90516 v -1.63183 c 0,-1.05545 0.761567,-1.90515 1.707549,-1.90515 z" />
          <path
             id="rect1126"
             style="fill:#ff9061;stroke:none;stroke-width:3.13186;stroke-miterlimit:4;stroke-dasharray:none;stroke-opacity:1;paint-order:stroke markers fill"
             d="m 89.064147,118.52807 h 27.454533 c 0.94598,0 1.70755,0.8497 1.70755,1.90515 v 1.63183 c 0,1.05546 -0.76157,1.90516 -1.70755,1.90516 H 89.064147 c -0.945982,0 -1.707549,-0.8497 -1.707549,-1.90516 v -1.63183 c 0,-1.05545 0.761567,-1.90515 1.707549,-1.90515 z" />
          <path
             id="rect1126-8"
             style="fill:#ff9061;stroke:none;stroke-width:3.13186;stroke-miterlimit:4;stroke-dasharray:none;stroke-opacity:1;paint-order:stroke markers fill"
             d="m 89.064147,129.62779 h 27.454533 c 0.94598,0 1.70755,0.8497 1.70755,1.90516 v 1.63183 c 0,1.05545 -0.76157,1.90515 -1.70755,1.90515 H 89.064147 c -0.945982,0 -1.707549,-0.8497 -1.707549,-1.90515 v -1.63183 c 0,-1.05546 0.761567,-1.90516 1.707549,-1.90516 z" />
        </g>
      </g>
    </g>
  </g>
</svg>
