<svg xmlns="http://www.w3.org/2000/svg" width="493.46" height="492.65" viewBox="0 0 130.56 130.35"><defs><filter id="a" x="0" width="1" y="0" height="1" color-interpolation-filters="sRGB"><feGaussianBlur/></filter><filter id="c" x="0" width="1" y="0" height="1" color-interpolation-filters="sRGB"><feGaussianBlur/></filter><clipPath clipPathUnits="userSpaceOnUse" id="b"><path class="powerclip" d="M35.9-164.64h137.32v137.09H35.91zm14.9 7.2a12.04 12.04 0 00-12.08 12.07v102.95c0 6.68 5.39 12.07 12.07 12.07h103.17c6.7 0 12.08-5.39 12.08-12.07v-102.95c0-6.69-5.39-12.07-12.08-12.07z" fill="#efd86a" stroke-width="1.89" paint-order="stroke markers fill"/></clipPath></defs><g transform="translate(-40.3 -14.47)" filter="url(#a)"><path transform="matrix(1 0 0 -1 2.65 -14.82)" clip-path="url(#b)" d="M52.98-159.64h103.17c6.69 0 12.07 5.39 12.07 12.07v102.95c0 6.69-5.38 12.07-12.07 12.07H52.98A12.04 12.04 0 0140.9-44.62v-102.95c0-6.68 5.38-12.07 12.07-12.07z" fill="#ff9061"/><rect width="127.31" height="127.09" x="40.31" y="-141.57" rx="12.07" ry="12.07" transform="scale(1 -1)" fill="#66cfcb" paint-order="stroke markers fill"/><path d="M197.97 54.73a45.52 45.52 0 00-45.62 45.62v389.09a45.52 45.52 0 0045.62 45.61h389.94a45.52 45.52 0 0045.63-45.61v-389.1a45.52 45.52 0 00-45.63-45.61z" transform="scale(.26458)" fill="#66cfcb" paint-order="stroke markers fill" filter="url(#a)"/></g><g transform="translate(-40.3 -14.47)" filter="url(#c)"><rect width="3.36" height="13.14" x="106.31" y="26.31" rx="1.68" ry="1.9" fill="#ff9061" paint-order="stroke markers fill"/><rect width="3.36" height="13.14" x="21.57" y="80.82" rx="1.68" ry="1.9" transform="rotate(-45)" fill="#ff9061" paint-order="stroke markers fill"/><rect width="3.36" height="13.14" x="-76.74" y="59.32" rx="1.68" ry="1.9" transform="rotate(-90)" fill="#ff9061" paint-order="stroke markers fill"/><rect width="3.36" height="13.14" x="-130.98" y="-25.39" rx="1.68" ry="1.9" transform="rotate(-135)" fill="#ff9061" paint-order="stroke markers fill"/><rect width="3.36" height="13.14" x="-131.16" y="-71.91" rx="1.68" ry="1.9" transform="scale(-1 1) rotate(-45)" fill="#ff9061" paint-order="stroke markers fill"/><rect width="3.36" height="13.14" x="-76.74" y="-156.67" rx="1.68" ry="1.9" transform="matrix(0 -1 -1 0 0 0)" fill="#ff9061" paint-order="stroke markers fill"/><rect width="3.36" height="13.14" x="21.74" y="-178.12" rx="1.68" ry="1.9" transform="scale(1 -1) rotate(45)" fill="#ff9061" paint-order="stroke markers fill"/><path style="line-height:normal;font-variant-ligatures:normal;font-variant-position:normal;font-variant-caps:normal;font-variant-numeric:normal;font-variant-alternates:normal;font-variant-east-asian:normal;font-feature-settings:normal;font-variation-settings:normal;text-indent:0;text-align:start;text-decoration-line:none;text-decoration-style:solid;text-decoration-color:#000;text-transform:none;text-orientation:mixed;white-space:normal;shape-padding:0;shape-margin:0;inline-size:0;isolation:auto;mix-blend-mode:normal;solid-color:#000;solid-opacity:1" d="M99.42 117.3l-2.7 1.23c2.1 4.65 7.16 6.54 11.82 6.39 4.67-.15 9.38-2.24 10.9-6.4l-2.8-1.01c-.9 2.5-4.37 4.32-8.19 4.45-3.81.12-7.54-1.37-9.03-4.66zM107.92 48.46c-20.2.07-31.67 22.2-21.76 38.2l-.06-.12c2.5 4.89 5.5 9.64 7.26 14.53l.02.06.03.06s.4.87.8 1.9c.4 1.01.71 2.38.71 2.41l2.96.1c.05-1.33-.46-2.46-.9-3.59s-.88-2.07-.88-2.07l.05.12c-1.91-5.31-5-10.15-7.4-14.86l-.04-.06-.03-.05c-8.72-14.08 1.2-33.6 19.24-33.67 18.05.07 27.97 19.6 19.24 33.67l-.03.05-.03.06c-2.4 4.7-5.5 9.55-7.4 14.86l.05-.12s-.44.94-.88 2.07-.96 2.26-.9 3.6l2.95-.1c0-.04.31-1.4.71-2.43.4-1.02.8-1.89.8-1.89l.03-.06.02-.06c1.76-4.89 4.77-9.64 7.26-14.53l-.06.11c9.91-15.98-1.55-38.12-21.75-38.2v1.49z" color="#000" font-weight="400" font-family="sans-serif" overflow="visible" fill="#ff9061" enable-background="accumulate"/><path style="line-height:normal;font-variant-ligatures:normal;font-variant-position:normal;font-variant-caps:normal;font-variant-numeric:normal;font-variant-alternates:normal;font-variant-east-asian:normal;font-feature-settings:normal;font-variation-settings:normal;text-indent:0;text-align:start;text-decoration-line:none;text-decoration-style:solid;text-decoration-color:#000;text-transform:none;text-orientation:mixed;white-space:normal;shape-padding:0;shape-margin:0;inline-size:0;isolation:auto;mix-blend-mode:normal;solid-color:#000;solid-opacity:1" d="M101.61 82.97c-1.5-.2-2.9.61-3.57 1.74a4.55 4.55 0 00-.31 3.84l.05.14.08.13c1.2 2 2.83 2.84 4.44 3.43-.14 3.37-.9 6.9-2.39 10.35l2.72 1.18a33.35 33.35 0 002.82-10.66c1.9.16 3.73.16 5.48 0 .27 3.6 1.33 7.22 2.82 10.66l2.72-1.18a29.14 29.14 0 01-2.39-10.35c1.62-.59 3.25-1.42 4.45-3.43l.08-.13.04-.14a4.55 4.55 0 00-.3-3.84 3.69 3.69 0 00-3.58-1.74l-.13.01-.13.05a4.77 4.77 0 00-2.96 3.01c-.44 1.23-.52 2.48-.6 3.51v.62c-1.71.18-3.56.18-5.52 0 0-.2.02-.41 0-.62-.07-1.03-.15-2.28-.6-3.5a4.77 4.77 0 00-2.96-3.02l-.13-.05zm-.52 3c.46.2.73.44.95 1.07.2.54.26 1.33.33 2.1-.7-.37-1.3-.88-1.84-1.72-.12-.47-.09-.96.06-1.2.12-.22.28-.23.5-.24zm14.2 0c.22.02.38.03.5.25.15.24.18.73.06 1.2a4.68 4.68 0 01-1.84 1.7c.07-.75.14-1.54.33-2.08.22-.63.5-.87.95-1.06z" color="#000" font-weight="400" font-family="sans-serif" overflow="visible" fill="#ff9061" enable-background="accumulate"/><g transform="translate(5.2 -16.19)" fill="#fad75c" paint-order="stroke markers fill"><rect width="30.87" height="5.44" x="87.36" y="124.07" rx="1.71" ry="1.91"/><rect width="30.87" height="5.44" x="87.36" y="118.53" rx="1.71" ry="1.91"/><rect width="30.87" height="5.44" x="87.36" y="129.63" rx="1.71" ry="1.91"/></g></g><g transform="translate(-40.3 -14.47)" filter="url(#c)"><path style="line-height:normal;font-variant-ligatures:normal;font-variant-position:normal;font-variant-caps:normal;font-variant-numeric:normal;font-variant-alternates:normal;font-variant-east-asian:normal;font-feature-settings:normal;font-variation-settings:normal;text-indent:0;text-align:start;text-decoration-line:none;text-decoration-style:solid;text-decoration-color:#000;text-transform:none;text-orientation:mixed;white-space:normal;shape-padding:0;shape-margin:0;inline-size:0;isolation:auto;mix-blend-mode:normal;solid-color:#000;solid-opacity:1" d="M96.87 118.67l-2.7 1.23c2.1 4.65 7.16 6.54 11.82 6.39 4.67-.15 9.38-2.24 10.89-6.4l-2.79-1.02c-.9 2.5-4.38 4.33-8.2 4.46-3.8.12-7.53-1.37-9.02-4.66z" color="#000" font-weight="400" font-family="sans-serif" overflow="visible" fill="#fad75c" paint-order="stroke markers fill" enable-background="accumulate"/><rect width="3.36" height="13.14" x="103.76" y="27.68" rx="1.68" ry="1.9" fill="#fad75c" paint-order="stroke markers fill"/><rect width="3.36" height="13.14" x="18.8" y="79.98" rx="1.68" ry="1.9" transform="rotate(-45)" fill="#fad75c" paint-order="stroke markers fill"/><rect width="3.36" height="13.14" x="-78.11" y="56.76" rx="1.68" ry="1.9" transform="rotate(-90)" fill="#fad75c" paint-order="stroke markers fill"/><rect width="3.36" height="13.14" x="-130.15" y="-28.17" rx="1.68" ry="1.9" transform="rotate(-135)" fill="#fad75c" paint-order="stroke markers fill"/><rect width="3.36" height="13.14" x="-130.32" y="-69.13" rx="1.68" ry="1.9" transform="scale(-1 1) rotate(-45)" fill="#fad75c" paint-order="stroke markers fill"/><rect width="3.36" height="13.14" x="-78.11" y="-154.12" rx="1.68" ry="1.9" transform="matrix(0 -1 -1 0 0 0)" fill="#fad75c" paint-order="stroke markers fill"/><rect width="3.36" height="13.14" x="18.97" y="-177.28" rx="1.68" ry="1.9" transform="scale(1 -1) rotate(45)" fill="#fad75c" paint-order="stroke markers fill"/><path style="line-height:normal;font-variant-ligatures:normal;font-variant-position:normal;font-variant-caps:normal;font-variant-numeric:normal;font-variant-alternates:normal;font-variant-east-asian:normal;font-feature-settings:normal;font-variation-settings:normal;text-indent:0;text-align:start;text-decoration-line:none;text-decoration-style:solid;text-decoration-color:#000;text-transform:none;text-orientation:mixed;white-space:normal;shape-padding:0;shape-margin:0;inline-size:0;isolation:auto;mix-blend-mode:normal;solid-color:#000;solid-opacity:1" d="M105.37 49.83c-20.2.07-31.67 22.2-21.76 38.2l-.06-.11c2.5 4.88 5.5 9.63 7.26 14.52l.02.06.03.06s.4.87.8 1.9c.4 1.01.71 2.38.71 2.41l2.96.1c.05-1.33-.46-2.46-.9-3.6-.41-1.05-.78-1.83-.83-1.94-1.91-5.31-5-10.15-7.4-14.86l-.04-.06-.03-.05c-8.72-14.08 1.2-33.6 19.24-33.67 18.05.07 27.97 19.6 19.24 33.67l-.03.05-.03.06c-2.4 4.7-5.5 9.55-7.4 14.86-.06.1-.42.89-.84 1.95-.43 1.13-.95 2.26-.9 3.6l2.96-.1c0-.04.31-1.4.71-2.43.4-1.02.8-1.89.8-1.89l.03-.06.02-.06c1.76-4.89 4.77-9.64 7.26-14.52l-.06.1c9.91-15.98-1.55-38.12-21.75-38.2v1.49z" color="#000" font-weight="400" font-family="sans-serif" overflow="visible" fill="#fad75c" enable-background="accumulate"/><path style="line-height:normal;font-variant-ligatures:normal;font-variant-position:normal;font-variant-caps:normal;font-variant-numeric:normal;font-variant-alternates:normal;font-variant-east-asian:normal;font-feature-settings:normal;font-variation-settings:normal;text-indent:0;text-align:start;text-decoration-line:none;text-decoration-style:solid;text-decoration-color:#000;text-transform:none;text-orientation:mixed;white-space:normal;shape-padding:0;shape-margin:0;inline-size:0;isolation:auto;mix-blend-mode:normal;solid-color:#000;solid-opacity:1" d="M99.06 84.34c-1.5-.2-2.9.61-3.58 1.74a4.55 4.55 0 00-.3 3.84l.05.14.07.13c1.2 2 2.84 2.84 4.45 3.43-.14 3.37-.9 6.9-2.39 10.35l2.72 1.18a33.35 33.35 0 002.82-10.66c1.9.16 3.73.16 5.48 0 .27 3.6 1.33 7.22 2.82 10.66l2.72-1.18a29.14 29.14 0 01-2.39-10.35c1.61-.59 3.25-1.42 4.45-3.43l.07-.13.05-.14c.47-1.31.36-2.7-.3-3.84a3.69 3.69 0 00-3.58-1.74l-.13.01-.13.04a4.77 4.77 0 00-2.97 3.02c-.44 1.23-.52 2.48-.59 3.51-.02.2.01.42 0 .62-1.72.18-3.56.18-5.52 0-.01-.2.02-.42 0-.63-.07-1.03-.16-2.27-.6-3.5a4.77 4.77 0 00-2.96-3.02l-.13-.04zm-.52 3.01c.46.2.73.43.95 1.06.2.54.26 1.33.33 2.1-.7-.37-1.3-.88-1.84-1.72-.12-.47-.09-.95.06-1.2.12-.22.28-.23.5-.24zm14.2 0c.22 0 .38.02.5.24.15.25.18.73.06 1.2a4.68 4.68 0 01-1.84 1.71c.07-.76.14-1.55.33-2.09.22-.63.49-.87.95-1.06z" color="#000" font-weight="400" font-family="sans-serif" overflow="visible" fill="#fad75c" enable-background="accumulate"/><g transform="translate(2.65 -14.82)" fill="#ff9061" paint-order="stroke markers fill"><rect width="30.87" height="5.44" x="87.36" y="124.07" rx="1.71" ry="1.91"/><rect width="30.87" height="5.44" x="87.36" y="118.53" rx="1.71" ry="1.91"/><rect width="30.87" height="5.44" x="87.36" y="129.63" rx="1.71" ry="1.91"/></g><path d="M92.96 130.3l19.44-.5" fill="none" stroke="#66cfcb" stroke-width=".26"/></g></svg>