<svg xmlns="http://www.w3.org/2000/svg" width="1364.071" height="492.629" viewBox="0 0 360.91 130.341"><defs><filter id="a" x="0" width="1" y="0" height="1" color-interpolation-filters="sRGB"><feGaussianBlur stdDeviation=".002"/></filter><filter id="c" x="0" width="1" y="0" height="1" color-interpolation-filters="sRGB"><feGaussianBlur stdDeviation=".001"/></filter><clipPath clipPathUnits="userSpaceOnUse" id="b"><path class="powerclip" d="M35.908-164.638H173.22V-27.55H35.908zm14.885 7.196a12.044 12.044 0 00-12.07 12.07v102.948c0 6.686 5.383 12.07 12.07 12.07h103.172c6.687 0 12.07-5.384 12.07-12.07v-102.947c0-6.687-5.383-12.07-12.07-12.07z" fill="#efd86a" stroke-width="1.887" paint-order="stroke markers fill"/></clipPath></defs><g font-weight="400" font-family="sans-serif" stroke-width=".265"><text style="line-height:1.05;white-space:pre;inline-size:229.567" x="326.236" y="282.679" transform="translate(-174.345 -246.888)" font-size="13.053" letter-spacing="2.249" stroke="#efd86a"><tspan x="326.236" y="282.679"><tspan style="-inkscape-font-specification:'DM Sans'" font-family="DM Sans" fill="#efd86a" stroke="none">CENTRO INTEGRADO DE </tspan></tspan><tspan x="326.236" y="296.413"><tspan style="-inkscape-font-specification:'DM Sans'" font-family="DM Sans" fill="#efd86a" stroke="none">FORMACIÓN PROFESIONAL</tspan></tspan></text><text style="line-height:1.25" x="191.766" y="249.994" font-size="40.569" letter-spacing="-1.389" fill="#efd86a" transform="translate(-40.193 -148.909)"><tspan x="191.766" y="249.994" style="-inkscape-font-specification:Now" font-family="Now">APOLO</tspan></text></g><g filter="url(#a)" transform="translate(-40.193 -148.909)"><path transform="matrix(1 0 0 -1 2.53 119.612)" clip-path="url(#b)" d="M52.978-159.638H156.15c6.687 0 12.07 5.384 12.07 12.07V-44.62c0 6.687-5.383 12.07-12.07 12.07H52.978a12.044 12.044 0 01-12.07-12.07v-102.946c0-6.687 5.383-12.07 12.07-12.07z" fill="#ff9061"/><rect width="127.312" height="127.087" x="40.194" y="-275.996" rx="12.07" ry="12.07" transform="scale(1 -1)" fill="#66cfcb" paint-order="stroke markers fill"/><path d="M197.973 54.727c-25.274 0-45.62 20.345-45.62 45.619v389.09c0 25.273 20.346 45.619 45.62 45.619h389.941c25.273 0 45.621-20.346 45.621-45.62v-389.09c0-25.273-20.348-45.618-45.62-45.618z" transform="translate(-.117 134.429) scale(.26458)" fill="#66cfcb" paint-order="stroke markers fill" filter="url(#a)"/></g><g filter="url(#c)" transform="translate(-40.193 -148.909)"><rect width="3.358" height="13.137" x="106.196" y="160.737" rx="1.679" ry="1.895" fill="#ff9061" paint-order="stroke markers fill"/><rect width="3.358" height="13.137" x="-73.57" y="175.789" rx="1.679" ry="1.895" transform="rotate(-45)" fill="#ff9061" paint-order="stroke markers fill"/><rect width="3.358" height="13.137" x="-211.17" y="59.199" rx="1.679" ry="1.895" transform="rotate(-90)" fill="#ff9061" paint-order="stroke markers fill"/><rect width="3.358" height="13.137" x="-225.955" y="-120.532" rx="1.679" ry="1.895" transform="rotate(-135)" fill="#ff9061" paint-order="stroke markers fill"/><rect width="3.358" height="13.137" x="-226.128" y="23.231" rx="1.679" ry="1.895" transform="scale(-1 1) rotate(-45)" fill="#ff9061" paint-order="stroke markers fill"/><rect width="3.358" height="13.137" x="-211.17" y="-156.551" rx="1.679" ry="1.895" transform="matrix(0 -1 -1 0 0 0)" fill="#ff9061" paint-order="stroke markers fill"/><rect width="3.358" height="13.137" x="-73.397" y="-273.091" rx="1.679" ry="1.895" transform="scale(1 -1) rotate(45)" fill="#ff9061" paint-order="stroke markers fill"/><path d="M97.957 252.344c3.59 7.938 17.554 6.757 19.963.095m-10.114-68.071c19.126.07 29.818 20.9 20.501 35.932-2.449 4.796-5.5 9.593-7.334 14.693 0 0-1.694 3.62-1.647 4.99m-11.52-55.615c-19.126.07-29.817 20.9-20.5 35.932 2.449 4.796 5.5 9.593 7.334 14.693 0 0 1.694 3.62 1.647 4.99" fill="none" stroke="#ff9061" stroke-width="2.965"/><path d="M114.993 237.616c-1.916-4.432-3.07-9.134-2.678-13.52.14-2.045.378-4.55 2.527-5.229 1.921-.244 2.948 1.772 2.297 3.622-1.507 2.523-3.718 2.946-5.926 3.586m-10.056 11.541c1.916-4.432 3.07-9.134 2.679-13.52-.141-2.045-.378-4.55-2.528-5.229-1.92-.244-2.948 1.772-2.297 3.622 1.508 2.523 3.719 2.946 5.927 3.586 2.215.216 4.311.224 6.275 0" fill="none" stroke="#ff9061" stroke-width="2.965"/><g transform="translate(5.08 118.242)" fill="#efd86a" paint-order="stroke markers fill"><rect width="30.87" height="5.442" x="87.357" y="124.068" rx="1.708" ry="1.905"/><rect width="30.87" height="5.442" x="87.357" y="118.528" rx="1.708" ry="1.905"/><rect width="30.87" height="5.442" x="87.357" y="129.628" rx="1.708" ry="1.905"/></g></g><g filter="url(#c)" transform="translate(-40.193 -148.909)"><path style="mix-blend-mode:normal" d="M95.405 253.715c3.591 7.937 17.554 6.756 19.964.094" fill="none" stroke="#efd86a" stroke-width="2.965" stroke-linejoin="round" paint-order="stroke markers fill"/><rect width="3.358" height="13.137" x="103.645" y="162.108" rx="1.679" ry="1.895" fill="#efd86a" paint-order="stroke markers fill"/><rect width="3.358" height="13.137" x="-76.343" y="174.954" rx="1.679" ry="1.895" transform="rotate(-45)" fill="#efd86a" paint-order="stroke markers fill"/><rect width="3.358" height="13.137" x="-212.54" y="56.648" rx="1.679" ry="1.895" transform="rotate(-90)" fill="#efd86a" paint-order="stroke markers fill"/><rect width="3.358" height="13.137" x="-225.12" y="-123.305" rx="1.679" ry="1.895" transform="rotate(-135)" fill="#efd86a" paint-order="stroke markers fill"/><rect width="3.358" height="13.137" x="-225.293" y="26.004" rx="1.679" ry="1.895" transform="scale(-1 1) rotate(-45)" fill="#efd86a" paint-order="stroke markers fill"/><rect width="3.358" height="13.137" x="-212.54" y="-153.999" rx="1.679" ry="1.895" transform="matrix(0 -1 -1 0 0 0)" fill="#efd86a" paint-order="stroke markers fill"/><rect width="3.358" height="13.137" x="-76.17" y="-272.256" rx="1.679" ry="1.895" transform="scale(1 -1) rotate(45)" fill="#efd86a" paint-order="stroke markers fill"/><path d="M105.255 185.738c19.126.07 29.818 20.901 20.5 35.932-2.448 4.796-5.499 9.593-7.333 14.693 0 0-1.694 3.62-1.647 4.99m-11.52-55.615c-19.126.07-29.818 20.901-20.501 35.932 2.45 4.796 5.5 9.593 7.334 14.693 0 0 1.694 3.62 1.647 4.99" fill="none" stroke="#efd86a" stroke-width="2.965"/><path d="M112.442 238.986c-1.916-4.432-3.07-9.134-2.679-13.52.142-2.045.379-4.55 2.528-5.229 1.921-.244 2.948 1.772 2.297 3.622-1.507 2.523-3.719 2.946-5.927 3.586m-10.055 11.541c1.916-4.432 3.07-9.134 2.679-13.52-.142-2.045-.379-4.55-2.528-5.229-1.921-.244-2.948 1.772-2.297 3.622 1.507 2.523 3.719 2.946 5.926 3.586 2.216.217 4.312.224 6.275 0" fill="none" stroke="#efd86a" stroke-width="2.965"/><g transform="translate(2.53 119.612)" fill="#ff9061" paint-order="stroke markers fill"><rect width="30.87" height="5.442" x="87.357" y="124.068" rx="1.708" ry="1.905"/><rect width="30.87" height="5.442" x="87.357" y="118.528" rx="1.708" ry="1.905"/><rect width="30.87" height="5.442" x="87.357" y="129.628" rx="1.708" ry="1.905"/></g><path d="M92.843 264.733l19.44-.511" fill="none" stroke="#66cfcb" stroke-width=".265"/></g></svg>