<svg xmlns="http://www.w3.org/2000/svg" width="1374.28" height="492.67" viewBox="0 0 363.61 130.35"><defs><filter id="b" x="0" width="1" y="0" height="1" color-interpolation-filters="sRGB"><feGaussianBlur/></filter><filter id="a" x="0" width="1" y="0" height="1" color-interpolation-filters="sRGB"><feGaussianBlur/></filter><clipPath clipPathUnits="userSpaceOnUse" id="c"><path class="powerclip" d="M35.9-164.64h137.33v137.1H35.9zm14.9 7.2a12.04 12.04 0 00-12.08 12.07v102.95c0 6.68 5.39 12.07 12.07 12.07h103.17c6.7 0 12.08-5.39 12.08-12.07v-102.95c0-6.69-5.39-12.07-12.08-12.07z" fill="#efd86a" stroke-width="1.89" paint-order="stroke markers fill"/></clipPath></defs><g stroke-width=".26" fill="#fad75c"><g aria-label="CENTRO INTEGRADO DE FORMACIÓN PROFESIONAL" transform="translate(-174.34 -246.88)" style="line-height:1.05;white-space:pre;inline-size:229.567" font-weight="500" font-size="13.05" font-family="DM Sans" letter-spacing="2.25" stroke="none" filter="url(#a)"><path d="M331.24 282.84q-1.36 0-2.35-.6-.98-.6-1.52-1.65-.53-1.07-.53-2.47 0-1.4.53-2.46.54-1.07 1.52-1.67.99-.6 2.35-.6 1.6 0 2.62.78t1.3 2.2h-1.55q-.18-.8-.78-1.27-.6-.47-1.6-.47-1.38 0-2.17.94-.8.92-.8 2.55 0 1.62.8 2.55.8.93 2.16.93 1 0 1.6-.45.6-.44.8-1.21h1.53q-.27 1.36-1.3 2.13-1 .77-2.61.77zM338.93 282.68v-9.14h5.8v1.12h-4.42v2.85h4.03v1.1h-4.03v2.95h4.43v1.12zM348.63 282.68v-9.14h1.38l4.58 6.88v-6.88h1.39v9.14h-1.39l-4.58-6.88v6.88zM362.22 282.68v-8.02h-2.7v-1.12h6.77v1.12h-2.68v8.02zM369.84 282.68v-9.14h3.14q1.08 0 1.78.37.7.36 1.04.99.34.61.34 1.37 0 .85-.46 1.54-.44.7-1.4 1l1.95 3.87h-1.6l-1.78-3.68h-1.63v3.68zm1.38-4.73h1.68q.94 0 1.37-.45.45-.46.45-1.2 0-.72-.43-1.15-.43-.45-1.4-.45h-1.67zM384.24 282.84q-1.36 0-2.38-.6-1.02-.6-1.6-1.66-.57-1.07-.57-2.47 0-1.4.58-2.45.57-1.07 1.6-1.67 1-.6 2.37-.6 1.35 0 2.37.6t1.58 1.67q.58 1.05.58 2.45 0 1.4-.58 2.47-.56 1.06-1.58 1.66-1.02.6-2.37.6zm0-1.24q.94 0 1.63-.42.7-.42 1.1-1.2.39-.79.39-1.87t-.4-1.87q-.39-.78-1.1-1.2-.68-.41-1.62-.41-.94 0-1.65.41-.7.42-1.1 1.2-.37.79-.37 1.87t.38 1.87q.39.78 1.1 1.2.7.42 1.64.42zM398.1 282.68v-9.14h1.38v9.14zM403.58 282.68v-9.14h1.38l4.58 6.88v-6.88h1.39v9.14h-1.39l-4.58-6.88v6.88zM417.17 282.68v-8.02h-2.7v-1.12h6.77v1.12h-2.69v8.02zM424.78 282.68v-9.14h5.81v1.12h-4.42v2.85h4.03v1.1h-4.03v2.95h4.42v1.12zM438.45 282.84q-1.29 0-2.25-.6-.97-.58-1.5-1.64-.54-1.05-.54-2.46 0-1.4.55-2.47.55-1.07 1.55-1.67 1.02-.61 2.4-.61 1.57 0 2.61.75 1.05.76 1.36 2.1h-1.56q-.21-.74-.83-1.16-.61-.42-1.58-.42-1.43 0-2.25.93-.83.93-.83 2.56t.81 2.55q.81.9 2.16.9t2.03-.76q.7-.77.81-2.05h-2.48v-1.07h3.88v4.96h-1.27l-.12-1.35q-.45.72-1.14 1.11-.7.4-1.8.4zM446.72 282.68v-9.14h3.15q1.08 0 1.77.37.7.36 1.05.99.34.61.34 1.37 0 .85-.46 1.54-.45.7-1.4 1l1.95 3.87h-1.6l-1.78-3.68h-1.64v3.68zm1.38-4.73h1.69q.94 0 1.37-.45.44-.46.44-1.2 0-.72-.43-1.15-.43-.45-1.4-.45h-1.67zM456.32 282.68l3.37-9.14h1.51l3.34 9.14h-1.46l-.78-2.23h-3.74l-.78 2.23zm2.64-3.33h2.95l-1.48-4.16zM468.07 282.68v-9.14h2.96q1.6 0 2.64.56t1.54 1.6q.5 1.01.5 2.42 0 1.4-.5 2.43-.5 1.02-1.54 1.58-1.03.55-2.64.55zm1.38-1.18h1.53q1.24 0 1.96-.4.73-.4 1.04-1.16.33-.76.33-1.82 0-1.05-.33-1.82-.31-.77-1.04-1.18-.72-.42-1.96-.42h-1.53zM483.71 282.84q-1.36 0-2.37-.6-1.02-.6-1.6-1.66-.57-1.07-.57-2.47 0-1.4.57-2.45.58-1.07 1.6-1.67 1.01-.6 2.37-.6t2.38.6q1.01.6 1.58 1.67.57 1.05.57 2.45 0 1.4-.57 2.47-.57 1.06-1.58 1.66-1.02.6-2.38.6zm0-1.24q.94 0 1.63-.42.7-.42 1.1-1.2.4-.79.4-1.87t-.4-1.87q-.4-.78-1.1-1.2-.69-.41-1.63-.41t-1.64.41q-.7.42-1.1 1.2-.38.79-.38 1.87t.38 1.87q.4.78 1.1 1.2.7.42 1.64.42zM497.57 282.68v-9.14h2.96q1.6 0 2.64.56t1.54 1.6q.5 1.01.5 2.42 0 1.4-.5 2.43-.5 1.02-1.54 1.58-1.03.55-2.64.55zm1.38-1.18h1.53q1.24 0 1.96-.4.73-.4 1.04-1.16.33-.76.33-1.82 0-1.05-.33-1.82-.31-.77-1.04-1.18-.72-.42-1.96-.42h-1.53zM509 282.68v-9.14h5.8v1.12h-4.42v2.85h4.03v1.1h-4.03v2.95h4.42v1.12zM327.16 296.41v-9.13h5.73v1.12h-4.34v2.88h3.6v1.11h-3.6v4.02zM340.72 296.57q-1.36 0-2.38-.6-1.02-.6-1.6-1.66-.57-1.07-.57-2.47 0-1.4.58-2.45.57-1.07 1.59-1.67 1.02-.6 2.38-.6 1.35 0 2.37.6t1.58 1.67q.58 1.06.58 2.45 0 1.4-.58 2.47-.56 1.06-1.58 1.66-1.02.6-2.37.6zm0-1.24q.94 0 1.63-.42.7-.42 1.1-1.2.39-.78.39-1.87 0-1.08-.4-1.86-.39-.79-1.1-1.2-.68-.42-1.62-.42-.94 0-1.65.42-.7.41-1.1 1.2-.37.78-.37 1.86 0 1.09.37 1.87.4.78 1.1 1.2.7.42 1.65.42zM349.03 296.41v-9.13h3.15q1.08 0 1.78.36.7.37 1.04 1 .34.6.34 1.36 0 .85-.46 1.54-.44.7-1.4 1l1.95 3.87h-1.6l-1.78-3.68h-1.63v3.68zm1.39-4.72h1.68q.94 0 1.37-.46.45-.46.45-1.19t-.43-1.16q-.44-.44-1.4-.44h-1.67zM359.22 296.41v-9.13h1.63l3.1 6.08 3.07-6.08h1.64v9.13h-1.39v-6.75l-2.79 5.45h-1.07l-2.8-5.43v6.73zM372.17 296.41l3.37-9.13h1.51l3.34 9.13h-1.46l-.78-2.23h-3.73l-.79 2.23zm2.64-3.33h2.95l-1.48-4.16zM387.47 296.57q-1.35 0-2.35-.59-.98-.6-1.51-1.66-.54-1.07-.54-2.46 0-1.41.54-2.47.53-1.07 1.51-1.67 1-.6 2.35-.6 1.6 0 2.63.78 1.02.79 1.29 2.2h-1.54q-.18-.8-.78-1.27-.6-.47-1.61-.47-1.37 0-2.17.94-.8.93-.8 2.56 0 1.62.8 2.54.8.93 2.17.93 1 0 1.6-.44.6-.45.79-1.22h1.54q-.27 1.36-1.3 2.13-1.01.77-2.62.77zM395.17 296.41v-9.13h1.38v9.13zM404.87 296.57q-1.36 0-2.38-.6-1.02-.6-1.6-1.66-.57-1.07-.57-2.47 0-1.4.58-2.45.57-1.07 1.6-1.67 1.01-.6 2.37-.6 1.35 0 2.37.6t1.58 1.67q.58 1.06.58 2.45 0 1.4-.58 2.47-.56 1.06-1.58 1.66-1.02.6-2.37.6zm0-1.24q.94 0 1.63-.42.7-.42 1.1-1.2.39-.78.39-1.87 0-1.08-.4-1.86-.39-.79-1.1-1.2-.68-.42-1.62-.42-.94 0-1.65.42-.7.41-1.1 1.2-.37.78-.37 1.86 0 1.09.38 1.87.39.78 1.1 1.2.7.42 1.64.42zm-.62-8.59v-1l2.85-1.61v1.15zM413.19 296.41v-9.13h1.38l4.58 6.87v-6.87h1.38v9.13h-1.38l-4.58-6.88v6.88zM430.18 296.41v-9.13h3.2q1.06 0 1.77.36.7.35 1.04.98.36.61.36 1.4 0 .74-.34 1.37-.33.61-1.04.98-.7.36-1.8.36h-1.81v3.68zm1.38-4.81h1.75q.98 0 1.4-.42.43-.43.43-1.16 0-.76-.44-1.18-.41-.43-1.4-.43h-1.74zM440.16 296.41v-9.13h3.15q1.08 0 1.78.36.7.37 1.04 1 .34.6.34 1.36 0 .85-.46 1.54-.44.7-1.4 1l1.95 3.87h-1.6l-1.78-3.68h-1.63v3.68zm1.39-4.72h1.68q.94 0 1.37-.46.45-.46.45-1.19t-.43-1.16q-.44-.44-1.4-.44h-1.67zM454.57 296.57q-1.36 0-2.38-.6-1.02-.6-1.6-1.66-.57-1.07-.57-2.47 0-1.4.58-2.45.57-1.07 1.59-1.67 1.02-.6 2.38-.6 1.35 0 2.37.6t1.58 1.67q.57 1.06.57 2.45 0 1.4-.57 2.47-.56 1.06-1.58 1.66-1.02.6-2.37.6zm0-1.24q.94 0 1.63-.42.7-.42 1.1-1.2.39-.78.39-1.87 0-1.08-.4-1.86-.39-.79-1.1-1.2-.68-.42-1.62-.42-.94 0-1.65.42-.7.41-1.1 1.2-.37.78-.37 1.86 0 1.09.37 1.87.4.78 1.1 1.2.7.42 1.65.42zM462.88 296.41v-9.13h5.73v1.12h-4.34v2.88h3.6v1.11h-3.6v4.02zM472.22 296.41v-9.13h5.8v1.12h-4.42v2.84h4.04v1.1h-4.04v2.95h4.43v1.12zM484.94 296.57q-1 0-1.76-.35-.76-.36-1.2-1-.41-.66-.42-1.56h1.46q.01.73.5 1.24.5.5 1.4.5.8 0 1.25-.37.45-.4.45-1 0-.48-.22-.78-.2-.3-.59-.5-.36-.19-.85-.34l-1.01-.34q-1.06-.36-1.6-.92-.52-.56-.52-1.47-.01-.77.35-1.35.38-.57 1.05-.88.68-.33 1.58-.33.89 0 1.55.33.68.32 1.06.9.38.58.39 1.35h-1.46q0-.35-.19-.66-.18-.33-.53-.54-.35-.2-.86-.2-.65-.02-1.09.32-.41.34-.41.94 0 .54.31.82.31.29.86.49l1.26.43q.67.22 1.2.53.54.31.86.82.32.51.32 1.3 0 .69-.35 1.29-.35.59-1.06.96-.7.37-1.73.37zM491.85 296.41v-9.13h1.38v9.13zM501.55 296.57q-1.36 0-2.38-.6-1.01-.6-1.59-1.66-.57-1.07-.57-2.47 0-1.4.57-2.45.58-1.07 1.6-1.67 1.01-.6 2.37-.6t2.37.6q1.02.6 1.58 1.67.58 1.06.58 2.45 0 1.4-.58 2.47-.56 1.06-1.58 1.66-1.01.6-2.37.6zm0-1.24q.94 0 1.63-.42.7-.42 1.1-1.2.39-.78.39-1.87 0-1.08-.4-1.86-.38-.79-1.09-1.2-.7-.42-1.63-.42-.94 0-1.65.42-.7.41-1.1 1.2-.37.78-.37 1.86 0 1.09.38 1.87.39.78 1.1 1.2.7.42 1.64.42zM509.87 296.41v-9.13h1.38l4.58 6.87v-6.87h1.39v9.13h-1.39l-4.58-6.88v6.88zM520.73 296.41l3.37-9.13h1.51l3.34 9.13h-1.46l-.78-2.23h-3.73l-.79 2.23zm2.64-3.33h2.95l-1.48-4.16zM532.48 296.41v-9.13h1.39v8.04h4.15v1.1z" style="-inkscape-font-specification:'DM Sans Medium'"/></g><g aria-label="APOLO" style="line-height:1.25;-inkscape-font-specification:Now" font-weight="400" font-size="40.57" font-family="Now" letter-spacing="-1.4" word-spacing="0"><path d="M173.2 101.07h7.16l-10.95-30.43h-7.5l-10.96 30.43h7.15l1.87-5.73h11.36zm-11.45-11.3l3.9-12.08 3.9 12.07zM194.22 70.64H181.3v30.43h6.7V88.75h6.23c5.13 0 9.08-3.8 9.08-8.93a9.06 9.06 0 00-9.08-9.18zm-1.06 12.58h-5.17v-6.7h5.17c2.13 0 3.75 1.38 3.75 3.35 0 2.03-1.62 3.35-3.75 3.35z" style="-inkscape-font-specification:Now"/><path d="M219.6 101.48c8.67 0 15.62-7 15.62-15.62a15.63 15.63 0 10-15.62 15.62zm0-6.54a8.9 8.9 0 01-9.03-9.08 8.9 8.9 0 019.03-9.08 8.91 8.91 0 019.08 9.08c0 5.12-3.9 9.08-9.08 9.08zM245.43 95.14v-24.5h-6.7v30.43h16.8v-5.93zM271.72 101.48c8.67 0 15.62-7 15.62-15.62a15.63 15.63 0 10-15.62 15.62zm0-6.54a8.9 8.9 0 01-9.02-9.08 8.9 8.9 0 019.02-9.08 8.91 8.91 0 019.08 9.08c0 5.12-3.9 9.08-9.08 9.08z" style="-inkscape-font-specification:Now"/></g></g><g transform="translate(-40.19 -148.9)" filter="url(#b)"><path transform="matrix(1 0 0 -1 2.53 119.61)" clip-path="url(#c)" d="M52.98-159.64h103.17c6.69 0 12.07 5.39 12.07 12.07v102.95c0 6.69-5.38 12.07-12.07 12.07H52.98A12.04 12.04 0 0140.9-44.62v-102.95c0-6.68 5.38-12.07 12.07-12.07z" fill="#ff9061" filter="url(#b)"/><path transform="matrix(1 0 0 -1 0 0)" d="M52.26-276h103.18c6.68 0 12.07 5.39 12.07 12.07v102.95c0 6.69-5.39 12.07-12.07 12.07H52.26a12.04 12.04 0 01-12.07-12.07v-102.95c0-6.68 5.39-12.07 12.07-12.07z" fill="#66cfcb" paint-order="stroke markers fill" filter="url(#b)"/></g><g transform="translate(-40.19 -148.9)" filter="url(#a)"><path style="line-height:normal;font-variant-ligatures:normal;font-variant-position:normal;font-variant-caps:normal;font-variant-numeric:normal;font-variant-alternates:normal;font-variant-east-asian:normal;font-feature-settings:normal;font-variation-settings:normal;text-indent:0;text-align:start;text-decoration-line:none;text-decoration-style:solid;text-decoration-color:#000;text-transform:none;text-orientation:mixed;white-space:normal;shape-padding:0;shape-margin:0;inline-size:0;isolation:auto;mix-blend-mode:normal;solid-color:#000;solid-opacity:1" d="M98.3 253.28l-2.7 1.23c2.1 4.65 7.16 6.54 11.82 6.39 4.67-.15 9.38-2.24 10.89-6.4l-2.79-1.01c-.9 2.5-4.38 4.32-8.19 4.45-3.82.12-7.54-1.37-9.03-4.66z" color="#000" font-weight="400" font-family="sans-serif" overflow="visible" fill="#ff9061" paint-order="stroke markers fill" enable-background="accumulate"/><path d="M106.87 162.29c.93 0 1.68.84 1.68 1.9v9.34c0 1.05-.75 1.9-1.68 1.9-.93 0-1.68-.85-1.68-1.9v-9.35c0-1.05.75-1.9 1.68-1.9zM72.46 176.69c.66-.66 1.79-.6 2.53.15l6.6 6.6c.75.75.82 1.88.16 2.54-.66.65-1.78.59-2.53-.16l-6.6-6.6c-.75-.75-.82-1.88-.16-2.53zM58.2 211.04c0-.93.84-1.68 1.89-1.68h9.35c1.05 0 1.9.75 1.9 1.68 0 .93-.85 1.68-1.9 1.68h-9.35c-1.05 0-1.9-.75-1.9-1.68zM72.35 245.37c-.66-.66-.59-1.79.16-2.53l6.6-6.61c.75-.74 1.87-.81 2.53-.15.66.66.6 1.78-.15 2.53l-6.61 6.6c-.74.75-1.87.81-2.53.16zM141.28 176.69c-.66-.66-1.79-.6-2.53.15l-6.6 6.6c-.75.75-.82 1.88-.16 2.54.66.65 1.78.59 2.53-.16l6.6-6.6c.75-.75.82-1.88.16-2.53zM155.55 211.04c0-.93-.85-1.68-1.9-1.68h-9.35c-1.05 0-1.9.75-1.9 1.68 0 .93.85 1.68 1.9 1.68h9.35c1.05 0 1.9-.75 1.9-1.68zM141.39 245.37c.65-.66.59-1.79-.16-2.53l-6.6-6.6c-.75-.75-1.87-.82-2.53-.16-.66.66-.6 1.78.15 2.53l6.61 6.6c.74.75 1.87.81 2.53.16z" fill="#ff9061" paint-order="stroke markers fill"/><path style="line-height:normal;font-variant-ligatures:normal;font-variant-position:normal;font-variant-caps:normal;font-variant-numeric:normal;font-variant-alternates:normal;font-variant-east-asian:normal;font-feature-settings:normal;font-variation-settings:normal;text-indent:0;text-align:start;text-decoration-line:none;text-decoration-style:solid;text-decoration-color:#000;text-transform:none;text-orientation:mixed;white-space:normal;shape-padding:0;shape-margin:0;inline-size:0;isolation:auto;mix-blend-mode:normal;solid-color:#000;solid-opacity:1" d="M100.49 218.95c-1.5-.2-2.9.61-3.58 1.74a4.55 4.55 0 00-.3 3.84l.05.14.07.13c1.2 2 2.84 2.84 4.45 3.43-.14 3.37-.9 6.9-2.39 10.35l2.72 1.18a33.35 33.35 0 002.82-10.66c1.9.16 3.73.16 5.48 0 .26 3.6 1.33 7.22 2.82 10.66l2.72-1.18a29.14 29.14 0 01-2.39-10.35c1.61-.59 3.25-1.42 4.45-3.43l.07-.13.05-.14c.47-1.31.37-2.7-.3-3.84a3.69 3.69 0 00-3.58-1.74l-.13.01-.13.04a4.77 4.77 0 00-2.97 3.02c-.43 1.22-.52 2.46-.59 3.5-.02.21.01.42 0 .63-1.71.18-3.56.18-5.52 0-.01-.2.02-.41 0-.62-.07-1.03-.15-2.28-.6-3.5a4.77 4.77 0 00-2.96-3.03l-.13-.04zm-.52 3c.46.2.73.44.95 1.07.2.54.26 1.33.33 2.1-.7-.37-1.3-.88-1.84-1.72-.12-.47-.09-.95.06-1.2.12-.22.28-.23.5-.24zm14.2 0c.22.02.38.03.5.25.15.25.18.73.06 1.2a4.68 4.68 0 01-1.84 1.71c.07-.76.13-1.55.33-2.09.22-.63.49-.87.95-1.06z" color="#000" font-weight="400" font-family="sans-serif" overflow="visible" fill="#ff9061" enable-background="accumulate"/><path style="line-height:normal;font-variant-ligatures:normal;font-variant-position:normal;font-variant-caps:normal;font-variant-numeric:normal;font-variant-alternates:normal;font-variant-east-asian:normal;font-feature-settings:normal;font-variation-settings:normal;text-indent:0;text-align:start;text-decoration-line:none;text-decoration-style:solid;text-decoration-color:#000;text-transform:none;text-orientation:mixed;white-space:normal;shape-padding:0;shape-margin:0;inline-size:0;isolation:auto;mix-blend-mode:normal;solid-color:#000;solid-opacity:1" d="M85.04 222.63l-.06-.1c2.5 4.88 5.5 9.63 7.26 14.51l.02.07.03.06s.4.87.8 1.89.71 2.4.71 2.42l2.96.1c.05-1.33-.46-2.46-.9-3.6-.44-1.12-.88-2.06-.88-2.06l.05.12c-1.91-5.31-5-10.16-7.4-14.86l-.04-.06-.03-.05c-8.73-14.08 1.2-33.6 19.24-33.67 18.05.07 27.97 19.6 19.24 33.67l-.03.05-.03.06c-2.4 4.7-5.5 9.55-7.4 14.86l.04-.12s-.44.94-.88 2.07c-.43 1.13-.95 2.26-.9 3.6l2.96-.1c0-.04.31-1.4.7-2.43.4-1.02.81-1.89.81-1.89l.03-.06.02-.07c1.76-4.88 4.77-9.63 7.26-14.51l-.06.1c9.9-15.98-1.55-38.12-21.76-38.12-20.2 0-31.67 22.14-21.76 38.12z" color="#000" font-weight="400" font-family="sans-serif" overflow="visible" fill="#ff9061" enable-background="accumulate"/><g fill="#fad75c" paint-order="stroke markers fill"><path d="M93.14 243.86h27.45c.95 0 1.71.85 1.71 1.9v1.64c0 1.05-.76 1.9-1.7 1.9H93.13c-.95 0-1.7-.85-1.7-1.9v-1.63c0-1.06.75-1.91 1.7-1.91zM93.14 238.32h27.45c.95 0 1.71.85 1.71 1.9v1.64c0 1.05-.76 1.9-1.7 1.9H93.13c-.95 0-1.7-.85-1.7-1.9v-1.63c0-1.06.75-1.9 1.7-1.9zM93.14 249.42h27.45c.95 0 1.71.85 1.71 1.9v1.64c0 1.05-.76 1.9-1.7 1.9H93.13c-.95 0-1.7-.85-1.7-1.9v-1.63c0-1.06.75-1.91 1.7-1.91z"/></g></g><g transform="translate(-40.19 -148.9)" filter="url(#a)"><path style="line-height:normal;font-variant-ligatures:normal;font-variant-position:normal;font-variant-caps:normal;font-variant-numeric:normal;font-variant-alternates:normal;font-variant-east-asian:normal;font-feature-settings:normal;font-variation-settings:normal;text-indent:0;text-align:start;text-decoration-line:none;text-decoration-style:solid;text-decoration-color:#000;text-transform:none;text-orientation:mixed;white-space:normal;shape-padding:0;shape-margin:0;inline-size:0;isolation:auto;mix-blend-mode:normal;solid-color:#000;solid-opacity:1" d="M95.66 254.34l-2.7 1.22c2.1 4.66 7.15 6.55 11.82 6.4 4.66-.15 9.38-2.24 10.88-6.4l-2.79-1.02c-.9 2.5-4.37 4.33-8.19 4.45-3.81.13-7.54-1.36-9.02-4.65z" color="#000" font-weight="400" font-family="sans-serif" overflow="visible" fill="#fad75c" paint-order="stroke markers fill" enable-background="accumulate"/><path d="M104.22 163.35c.93 0 1.68.84 1.68 1.9v9.34c0 1.05-.75 1.9-1.68 1.9-.93 0-1.68-.85-1.68-1.9v-9.35c0-1.05.75-1.9 1.68-1.9zM69.82 177.75c.65-.66 1.78-.6 2.52.15l6.61 6.6c.75.75.81 1.88.16 2.53-.66.66-1.79.6-2.53-.15l-6.61-6.6c-.74-.75-.81-1.88-.15-2.53zM55.55 212.1c0-.93.84-1.68 1.9-1.68h9.34c1.05 0 1.9.75 1.9 1.68 0 .93-.85 1.68-1.9 1.68h-9.35c-1.05 0-1.9-.75-1.9-1.68zM69.7 246.43c-.65-.66-.58-1.79.16-2.53l6.6-6.61c.75-.74 1.88-.81 2.54-.15.65.65.59 1.78-.16 2.52l-6.6 6.61c-.75.74-1.88.81-2.53.16zM138.63 177.75c-.66-.66-1.78-.6-2.53.15l-6.6 6.6c-.75.75-.82 1.88-.16 2.53.66.66 1.79.6 2.53-.15l6.6-6.6c.75-.75.82-1.88.16-2.53zM152.9 212.1c0-.93-.85-1.68-1.9-1.68h-9.34c-1.05 0-1.9.75-1.9 1.68 0 .93.85 1.68 1.9 1.68H151c1.05 0 1.9-.75 1.9-1.68zM138.74 246.43c.66-.66.6-1.79-.15-2.53l-6.61-6.61c-.74-.74-1.87-.81-2.53-.15-.66.65-.59 1.78.15 2.52l6.61 6.61c.75.74 1.87.81 2.53.16z" fill="#fad75c" paint-order="stroke markers fill"/><path style="line-height:normal;font-variant-ligatures:normal;font-variant-position:normal;font-variant-caps:normal;font-variant-numeric:normal;font-variant-alternates:normal;font-variant-east-asian:normal;font-feature-settings:normal;font-variation-settings:normal;text-indent:0;text-align:start;text-decoration-line:none;text-decoration-style:solid;text-decoration-color:#000;text-transform:none;text-orientation:mixed;white-space:normal;shape-padding:0;shape-margin:0;inline-size:0;isolation:auto;mix-blend-mode:normal;solid-color:#000;solid-opacity:1" d="M82.4 223.69l-.07-.1c2.5 4.88 5.5 9.63 7.26 14.51l.03.07.03.06s.4.87.8 1.89.7 2.4.7 2.42l2.97.1c.04-1.34-.47-2.46-.9-3.6a38.13 38.13 0 00-.89-2.07l.05.13c-1.9-5.31-5-10.16-7.4-14.87l-.03-.05-.04-.05c-8.72-14.08 1.2-33.6 19.25-33.67 18.04.07 27.96 19.6 19.24 33.67l-.04.05-.02.05c-2.4 4.71-5.5 9.56-7.41 14.87l.05-.13s-.44.95-.88 2.08c-.44 1.13-.95 2.25-.9 3.6l2.96-.1c0-.04.3-1.4.7-2.43.4-1.02.8-1.89.8-1.89l.03-.06.03-.07c1.75-4.88 4.76-9.63 7.26-14.52l-.06.1c9.9-15.97-1.56-38.11-21.76-38.11-20.21 0-31.67 22.14-21.77 38.12z" color="#000" font-weight="400" font-family="sans-serif" overflow="visible" fill="#fad75c" enable-background="accumulate"/><path style="line-height:normal;font-variant-ligatures:normal;font-variant-position:normal;font-variant-caps:normal;font-variant-numeric:normal;font-variant-alternates:normal;font-variant-east-asian:normal;font-feature-settings:normal;font-variation-settings:normal;text-indent:0;text-align:start;text-decoration-line:none;text-decoration-style:solid;text-decoration-color:#000;text-transform:none;text-orientation:mixed;white-space:normal;shape-padding:0;shape-margin:0;inline-size:0;isolation:auto;mix-blend-mode:normal;solid-color:#000;solid-opacity:1" d="M97.84 220c-1.5-.18-2.9.62-3.57 1.75a4.55 4.55 0 00-.3 3.84l.04.14.08.13c1.2 2 2.83 2.84 4.44 3.43-.14 3.37-.9 6.9-2.38 10.35l2.72 1.17a33.34 33.34 0 002.81-10.65c1.9.16 3.73.16 5.49 0 .26 3.6 1.32 7.22 2.81 10.65l2.72-1.17a29.14 29.14 0 01-2.38-10.35c1.6-.59 3.24-1.43 4.44-3.43l.08-.13.05-.14a4.55 4.55 0 00-.3-3.84A3.69 3.69 0 00111 220l-.13.01-.13.04a4.77 4.77 0 00-2.96 3.02c-.44 1.23-.52 2.48-.6 3.51-.01.2.02.42 0 .62-1.71.18-3.55.18-5.51 0-.02-.2.01-.41 0-.62-.08-1.03-.16-2.28-.6-3.51a4.77 4.77 0 00-2.97-3.02l-.12-.04zm-.52 3.02c.47.19.73.43.96 1.06.19.53.25 1.32.33 2.09-.7-.37-1.31-.88-1.85-1.7-.11-.49-.09-.97.06-1.22.13-.21.28-.23.5-.23zm14.2 0c.22 0 .38.02.5.23.15.25.18.73.06 1.21a4.68 4.68 0 01-1.84 1.7c.07-.76.14-1.55.33-2.08.22-.63.5-.87.96-1.06z" color="#000" font-weight="400" font-family="sans-serif" overflow="visible" fill="#fad75c" enable-background="accumulate"/><g fill="#ff9061" paint-order="stroke markers fill"><path d="M90.5 244.92h27.45c.94 0 1.7.85 1.7 1.9v1.64c0 1.05-.76 1.9-1.7 1.9H90.49c-.94 0-1.7-.85-1.7-1.9v-1.64c0-1.05.76-1.9 1.7-1.9zM90.5 239.38h27.45c.94 0 1.7.85 1.7 1.9v1.64c0 1.05-.76 1.9-1.7 1.9H90.49c-.94 0-1.7-.85-1.7-1.9v-1.64c0-1.05.76-1.9 1.7-1.9zM90.5 250.48h27.45c.94 0 1.7.85 1.7 1.9v1.64c0 1.05-.76 1.9-1.7 1.9H90.49c-.94 0-1.7-.85-1.7-1.9v-1.64c0-1.05.76-1.9 1.7-1.9z"/></g></g></svg>